<svg xmlns="http://www.w3.org/2000/svg" xmlns:xlink="http://www.w3.org/1999/xlink" id="Calque_1" x="0px" y="0px" viewBox="0 0 548.4 91" style="enable-background:new 0 0 548.4 91;" xml:space="preserve"><style type="text/css">	.st0{fill:#FFFFFF;}</style><g id="Calque_2_00000178924144321008745710000018221297181359732638_">	<g id="Calque_1-2">		<path class="st0" d="M0,15.3c2.4,0,4.8,0,7.2,0c0.8-0.1,1.6,0.3,2,1c5.9,9,11.8,18,17.8,27c1,1.5,1,1.5,2,0   c5.8-8.9,11.7-17.8,17.5-26.7c0.5-1,1.5-1.5,2.6-1.4c1.8,0.1,3.6,0,5.4,0c0.3,0,0.8-0.2,0.9,0.2S55.2,16,55,16.3   c-4.2,6.3-8.5,12.6-12.7,18.9c-3.4,5-6.8,10.1-10.2,15.1c-0.6,0.8-0.9,1.8-0.9,2.9c0,6.9,0,13.8,0,20.6c0,1.5-0.1,1.6-1.6,1.6   c-1.3,0-2.5-0.1-3.8,0c-1.1,0.1-1.5-0.3-1.5-1.4c0-6.8,0-13.7,0-20.5c0-1.1-0.3-2.3-1-3.2C16,39.2,8.5,28.1,1,16.9   c-0.3-0.5-0.5-1.1-1-1.4V15.3z"></path>		<path class="st0" d="M496.7,0c0,0.1,0,0.1,0,0.2c-0.3,0.3-0.8,0.4-1.1,0.1c0,0-0.1-0.1-0.1-0.1V0L496.7,0z"></path>		<path class="st0" d="M376,62.6c1.7-5.2,3.4-10.1,5-14.9l9.5-28.6c0.4-1,0.7-2.1,1-3.1c0.2-0.5,0.4-0.9,1-0.9h6.4   c-0.8,2.5-1.6,4.8-2.4,7.1c-4.4,13.2-8.9,26.4-13.4,39.5c-1.4,4.2-2.9,8.3-4.2,12.5c-0.4,1.1-0.9,1.7-2.1,1.5   c-0.7-0.1-1.4-0.1-2.2,0c-1.2,0.1-1.7-0.4-2-1.5c-1.5-5-3.1-9.9-4.7-14.9c-3-9.5-6.1-19.1-9.1-28.6c-0.1-0.5-0.3-0.9-0.6-1.3   c-1,3-1.9,6-2.9,9l-6.1,19.1c-1.8,5.5-3.5,11.1-5.2,16.6c-0.4,1.2-0.9,1.8-2.2,1.6c-0.5,0-1.1,0-1.6,0c-2,0-2,0-2.7-1.9   c-3.7-11-7.5-22.1-11.2-33.1c-2.7-8-5.5-16-8.2-24c-0.1-0.2-0.1-0.5-0.2-0.8c-0.3-0.7-0.1-1,0.7-1c1.8,0.1,3.5,0.1,5.3,0   c0.8-0.1,1.5,0.4,1.6,1.2c0,0,0,0,0,0c4.8,14.4,9.5,28.7,14.4,43.1l1.2,3.4c0.6-1.8,1.1-3.2,1.5-4.7c2.3-7.5,4.7-15,7-22.6   c1.9-6.3,3.9-12.5,5.8-18.8c0.6-1.6,0.6-1.6,2.2-1.5c0.7,0.1,1.4,0.1,2.1,0c0.7-0.2,1.5,0.2,1.7,1c0,0.1,0,0.1,0,0.2   c2.7,8.8,5.4,17.5,8.1,26.3c2,6.4,4,12.9,6,19.3C375.7,62,375.8,62.2,376,62.6z"></path>		<path class="st0" d="M495.6,0.2h1.2c2.5,0.6,4.7,2.2,5.9,4.5c1.3,2.2,1.4,5,0.5,7.3c4.6-0.6,8.9-1.2,13.2-1.8   c4.7-0.7,9.4-1.3,14-2.2c4.5-0.9,8.8-2.1,13.3-3.3c0.4-0.1,0.7-0.2,1.1-0.2c2.6-0.1,3.5,0.9,3.1,3.5c-0.7,5.3-3.8,8.3-8.8,9.7   c-3.3,0.9-6.7,1.4-10.1,1.7c-5.6,0.4-11.2,0.8-16.8,1.1c-3.5,0.2-7,0.5-10.6,0.7c-1.3,0-2.4,0.8-2.8,2c-4.2,10-8.4,19.9-12.6,29.9   c-1.4,2.9-2.5,5.8-3.3,8.9c-0.5,1.7-0.5,3.5-0.2,5.2c0.8,3,3.8,5,6.9,4.4c2.5-0.5,4.8-1.3,7.1-2.3c-1.6,1.7-3.3,3.2-5.3,4.5   c-3,2.1-6.7,3-10.4,2.5c-4.4-0.7-6.6-2.8-7.7-7.1s-0.5-8.6,0.6-12.8c2.2-7.6,4.8-15,7.9-22.3c1.4-3.5,2.7-7.1,4.1-10.6   c0.3-0.8,0.2-1.2-0.8-1.1c-2.7,0.3-5.4,0.2-8.1,0.3c-1,0-1.4-0.3-1.5-1.3c-0.1-1.6,0.7-3.1,2-4c1.9-1.4,4.2-1.9,6.5-2.3   c1.4-0.3,2.8-0.5,4.3-0.7c0.7-0.1,1.3-0.7,1.5-1.4c1.5-3.7,3-7.5,4.5-11.2C494.8,1.3,494.7,0.4,495.6,0.2z"></path>		<path class="st0" d="M74.8,45.4V16.8c0-1.5,0-1.5,1.5-1.5c12,0,24,0,36.1,0c0.9-0.2,1.8,0.4,2,1.4c0,0,0,0.1,0,0.1   c0.4,1.4,0.9,2.8,1.4,4.2c0.3,0.8,0.1,1.1-0.8,1c-2.2,0-4.5,0-6.7,0h-25c-1.7,0-1.7,0.1-1.7,1.8c0,5.5,0,11.1,0,16.6   c0,1.1,0.3,1.5,1.4,1.5c6.1,0,12.3,0,18.4,0c1.5,0,1.5,0,1.5,1.5c0,1.3-0.1,2.6,0,3.9s-0.4,1.4-1.5,1.4c-5.9,0-11.8,0-17.7,0   c-0.3,0-0.5,0-0.8,0c-1.1-0.1-1.4,0.4-1.4,1.4c0,5.2,0,10.4,0,15.6c0,3.3-0.6,3.1,3.1,3.1c10.2,0,20.3,0,30.5,0   c1,0,1.2,0.2,0.9,1.2c-0.6,1.4-1.1,2.9-1.5,4.4c-0.1,0.8-0.9,1.4-1.8,1.3c0,0,0,0,0,0c-8.4,0-16.8,0-25.2,0c-3.8,0-7.6,0-11.4,0   c-1.1,0-1.4-0.3-1.4-1.4C74.8,64.6,74.8,55,74.8,45.4z"></path>		<path class="st0" d="M285.5,68.8c1.9-0.7,3.8-1.6,5.5-2.6c5.1-3.1,8.8-8.1,10.1-13.9c1.7-6.5,1.5-12.9-1.8-19   c-3.7-6.9-9.4-11.1-17.3-12.1c-10.2-1.4-20,4.4-23.8,14c-1.4,3.2-2.1,6.7-2.2,10.2c0,6.2,2.3,11.7,6,16.6c0.2,0.3,0.6,0.6,0.5,1   s-0.7,0.2-1,0.2c-1.7,0.1-3.5,0.5-5.1,1c-0.8,0.4-1.7,0.1-2.1-0.7c0,0,0,0,0,0c-3.2-4.7-5-10.2-5.4-15.9c-0.6-6,0.6-12,3.4-17.3   c4.6-8.7,11.8-14.3,21.8-15.7c10.6-1.5,19.8,1.4,27.2,9.2c4,4.3,6.6,9.7,7.6,15.4c1.1,6.2,0.5,12.6-1.8,18.5   c-2,5.1-5.7,8.3-10.7,10.2c-3.2,1.1-6.5,1.6-9.9,1.3C286.2,69.3,285.8,69.2,285.5,68.8z"></path>		<path class="st0" d="M196.1,45.4V16.8c0-1.5,0-1.5,1.4-1.5s2.7,0.1,4.1,0c1-0.1,1.3,0.3,1.3,1.3c0,5.4,0,10.9,0,16.3v34.2   c0,1.5,0.1,1.6,1.7,1.6h28.9c1.3,0,1.3,0,0.8,1.2c-0.6,1.5-1.1,3.1-1.6,4.6c-0.1,0.7-0.7,1.1-1.4,1c-11.3,0-22.5,0-33.8,0   c-1.1,0-1.4-0.3-1.4-1.4C196.2,64.5,196.1,54.9,196.1,45.4z"></path>		<path class="st0" d="M137.8,45.3V16.9c0-1.6,0.1-1.6,1.7-1.6c1.3,0.1,2.5,0.1,3.8-0.1c0.9-0.1,1.4,0.2,1.4,1.2V17   c0,16.8,0,33.6,0,50.4c0,1.1,0.4,1.3,1.4,1.3c9.7,0,19.3,0,29,0c1.3,0,1.3,0,0.9,1.2c-0.5,1.6-1.1,3.1-1.6,4.6   c-0.1,0.7-0.7,1.1-1.4,1c-11.2,0-22.5,0-33.7,0c-1.4,0-1.5-0.1-1.5-1.5L137.8,45.3z"></path>		<path class="st0" d="M456,68.3c-4.1,3.6-8.3,7.1-14.3,7.5c-4.6,0.3-7.5-2.8-8.5-6.6c-1.1-4.7-1.1-9.7,0.1-14.4   c1.4-6.5,3.8-12.8,6-19.1c0.5-1.5,1.1-2.9,1.6-4.4c0.3-0.8,0.7-1.2,1.6-1c2.9,0.6,5.6,1.5,7.7,3.7c1.4,1.4,1.9,3.4,1.3,5.2   c-0.9,3-2.6,5.6-4.1,8.3c-2.4,4.2-4.9,8.3-6,13.1c-0.6,1.9-0.7,3.9-0.2,5.8c0.9,2.7,3.6,4.3,6.4,3.7c2.6-0.4,5.2-1.1,7.7-2.1   c0.2-0.1,0.4-0.1,0.6-0.1L456,68.3z"></path>		<path class="st0" d="M249.2,74.4c0.7-1.3,1.7-2.4,3-3.1c5.5-3.2,12-4.1,18.1-2.3c3.3,0.9,6.5,2.1,9.6,3.5c6.3,2.7,12.5,2.5,18.7,0   c2.6-1,5-2.3,7-4.1c0.2-0.1,0.3-0.2,0.5-0.3c-0.1,1-0.5,1.9-1.1,2.7c-2.9,4.7-7.3,7.3-12.5,9c-5.8,1.8-11.3,0.6-16.7-1.7   c-3.9-1.6-7.6-3.6-11.8-4.5c-4.8-1.1-9.7-0.9-14.3,0.8c-0.1,0-0.2,0.1-0.3,0.1C249.4,74.5,249.3,74.5,249.2,74.4z"></path>		<path class="st0" d="M255.8,81.2c1.7-1.2,3.6-1.9,5.7-2c4.8-0.4,9.1,1.2,13.3,3.2c3.7,1.8,7.8,2.6,11.9,2.5   c3.9-0.3,7.7-1.2,11.2-2.8c0.4-0.2,0.9-0.4,1.4-0.4c-1.4,2.6-3.5,4.8-6.1,6.2c-3.4,2.1-7.3,3.2-11.3,3c-3.1-0.2-6.1-1.1-8.8-2.5   c-2.9-1.4-5.6-3-8.4-4.5c-2.6-1.4-5.4-2.2-8.4-2.4C256.1,81.3,255.9,81.3,255.8,81.2z"></path>		<path class="st0" d="M456.5,21.8c0.1,3.7-2.8,6.8-6.5,6.9s-6.8-2.8-6.9-6.5c0-0.2,0-0.3,0-0.5c0.1-3.6,3-6.5,6.5-6.5   c3.6-0.1,6.7,2.7,6.8,6.3C456.5,21.6,456.5,21.7,456.5,21.8z"></path>		<path class="st0" d="M506.5,48.5c-0.2,0.2-0.3,0.4-0.4,0.5l-3.4,3.4c-0.5,0.5-0.9,0.6-1.5,0c-1-1.1-2.1-2.2-3.2-3.2   c-0.6-0.5-0.6-0.9,0-1.4c1.1-1.1,2.2-2.2,3.3-3.3c0.4-0.4,0.8-0.5,1.2-0.1c1.2,1.2,2.4,2.4,3.6,3.6   C506.2,48.1,506.3,48.3,506.5,48.5z"></path>		<path class="st0" d="M462.1,43.9c0.2,0.2,0.4,0.3,0.5,0.5c1.2,1.2,2.3,2.3,3.5,3.5c0.4,0.4,0.5,0.7,0,1.1   c-1.2,1.2-2.4,2.3-3.5,3.5c-0.2,0.3-0.7,0.4-1,0.2c-0.1,0-0.1-0.1-0.2-0.2L458,49c-0.4-0.3-0.5-0.7-0.1-1.1l3.8-3.8   C461.8,44.1,462,44,462.1,43.9z"></path>	</g></g></svg>