<svg xmlns="http://www.w3.org/2000/svg" id="Calque_1" data-name="Calque 1" viewBox="0 0 408.82 181.01"><defs><style>.cls-1{isolation:isolate;}.cls-2{fill:#fff;}</style></defs><g id="BTI_gras" data-name="BTI gras"><g class="cls-1"><path class="cls-2" d="M72.5,74.25a23.27,23.27,0,0,1-1.93,9.46,24.77,24.77,0,0,1-13,13,23.3,23.3,0,0,1-9.46,1.93H7.53V17.39H48.14a23.46,23.46,0,0,1,9.46,1.92,24.77,24.77,0,0,1,13,13,23.34,23.34,0,0,1,1.93,9.46,18.6,18.6,0,0,1-.62,4.65A22.56,22.56,0,0,1,70.12,51a19.39,19.39,0,0,1-2.72,4,15.46,15.46,0,0,1-3.51,3,12.78,12.78,0,0,1,3.57,2.92,20.21,20.21,0,0,1,2.72,4,21.72,21.72,0,0,1,1.73,4.61A19.79,19.79,0,0,1,72.5,74.25ZM23.79,49.9H48.14a8,8,0,0,0,5.75-2.35,7.88,7.88,0,0,0,1.73-2.61,8.15,8.15,0,0,0,.62-3.2,8,8,0,0,0-8.1-8.1H23.79Zm0,32.45H48.14a8,8,0,0,0,3.18-.62,8.08,8.08,0,0,0,4.3-4.3,8.44,8.44,0,0,0,0-6.35,8.08,8.08,0,0,0-4.3-4.3,8,8,0,0,0-3.18-.63H23.79Z" transform="translate(-3.78 -17.39)"></path></g><g class="cls-1"><path class="cls-2" d="M117.76,98.61h-16.2v-65H77.15V17.39h65V33.64H117.76Z" transform="translate(-3.78 -17.39)"></path><path class="cls-2" d="M167,98.61H150.73V17.39H167Z" transform="translate(-3.78 -17.39)"></path></g></g><g id="Studio"><g class="cls-1"><path class="cls-2" d="M3.78,140.06A23.5,23.5,0,0,1,5.7,130.6a24.77,24.77,0,0,1,13-13,23.5,23.5,0,0,1,9.46-1.92H65.4V132H28.13a8,8,0,0,0-3.17.63,8.1,8.1,0,0,0-2.58,1.72,8.3,8.3,0,0,0-1.73,2.58,8.14,8.14,0,0,0-.62,3.17,8.33,8.33,0,0,0,.62,3.2,8.2,8.2,0,0,0,1.73,2.61A8.3,8.3,0,0,0,25,147.6a8.14,8.14,0,0,0,3.17.62H44.39a23.78,23.78,0,0,1,9.48,1.9,24.23,24.23,0,0,1,13,13,24.55,24.55,0,0,1,0,18.94,24.38,24.38,0,0,1-5.21,7.74A24.8,24.8,0,0,1,53.87,195a23.46,23.46,0,0,1-9.48,1.93H8.31V180.67H44.39a8.1,8.1,0,1,0,0-16.2H28.13a23.5,23.5,0,0,1-9.46-1.92,24.68,24.68,0,0,1-13-13A23.67,23.67,0,0,1,3.78,140.06Z" transform="translate(-3.78 -17.39)"></path></g><g class="cls-1"><path class="cls-2" d="M112.35,196.93H96.15V132H71.74V115.71h65V132H112.35Z" transform="translate(-3.78 -17.39)"></path><path class="cls-2" d="M209.38,164.47a31.61,31.61,0,0,1-2.55,12.66,32.32,32.32,0,0,1-7,10.31,32.93,32.93,0,0,1-10.34,6.94,32.68,32.68,0,0,1-25.31,0A32.41,32.41,0,0,1,147,177.13a31.61,31.61,0,0,1-2.55-12.66V115.71h16.2v48.76a15.65,15.65,0,0,0,1.27,6.29,16.31,16.31,0,0,0,8.67,8.64,16.34,16.34,0,0,0,12.63,0,16.31,16.31,0,0,0,8.67-8.64,15.65,15.65,0,0,0,1.27-6.29V115.71h16.26Z" transform="translate(-3.78 -17.39)"></path><path class="cls-2" d="M288.56,156.32a40.14,40.14,0,0,1-1.44,10.79,40.58,40.58,0,0,1-4.11,9.68,42.21,42.21,0,0,1-6.34,8.22,40.57,40.57,0,0,1-17.93,10.48A40.14,40.14,0,0,1,248,196.93H223.48V115.71H248a40.42,40.42,0,0,1,28.72,11.92,42.15,42.15,0,0,1,6.34,8.21,40.65,40.65,0,0,1,4.11,9.69A40.08,40.08,0,0,1,288.56,156.32Zm-16.26,0a23.82,23.82,0,0,0-1.89-9.46,24.49,24.49,0,0,0-13-13A23.72,23.72,0,0,0,248,132h-8.1v48.71H248a24,24,0,0,0,9.49-1.89,24.23,24.23,0,0,0,13-13A24,24,0,0,0,272.3,156.32Z" transform="translate(-3.78 -17.39)"></path><path class="cls-2" d="M315.58,196.93H299.32V115.71h16.26Z" transform="translate(-3.78 -17.39)"></path></g></g><g id="Calque_4" data-name="Calque 4"><path class="cls-2" d="M407,139.5a2.25,2.25,0,1,0-2.2-2.3h0A2.13,2.13,0,0,0,407,139.5Z" transform="translate(-3.78 -17.39)"></path><circle class="cls-2" cx="387.22" cy="119.71" r="2.1"></circle><circle class="cls-2" cx="398.82" cy="127.41" r="1.5"></circle><path class="cls-2" d="M395.8,150.8a1.9,1.9,0,1,0,1.9-1.9,1.9,1.9,0,0,0-1.9,1.9Z" transform="translate(-3.78 -17.39)"></path><path class="cls-2" d="M410.9,157.7a1.3,1.3,0,1,0-1.3-1.3h0A1.21,1.21,0,0,0,410.9,157.7Z" transform="translate(-3.78 -17.39)"></path><path class="cls-2" d="M411.1,159.7a1.77,1.77,0,0,0-2.2,1.2v.3h0a38.26,38.26,0,0,1-17.5,27c-.3.2.5,1,.8.9,6.3-4.1,10.6-10.4,13.7-17.4a1.37,1.37,0,0,1-2.5-1.1h0c0,.1-.1.2-.1.3a36.38,36.38,0,0,0,2.8-20.6l-.1-.6a1.84,1.84,0,0,0-1.7-1.2,1.79,1.79,0,0,0-1.8,1.8h0v.3h0a29.22,29.22,0,0,1,.4,5.1,33.6,33.6,0,0,1-.6,6.3h0v0a1.35,1.35,0,0,1-1.6.7,1.17,1.17,0,0,1-.8-1.1v-.1c-1.2,6.3-8.9,16.2-8.9,16.2a29.57,29.57,0,0,0,9.4-21.2v-.2a2.07,2.07,0,0,0-2.2-2.1,2.22,2.22,0,0,0-2.2,2.2h0v-.1a26,26,0,1,1-26-26,25.48,25.48,0,0,1,15.3,5l-.2-.1a2.23,2.23,0,0,0,3.1-.5,2.32,2.32,0,0,0-.4-3.1l-.1-.1a57.05,57.05,0,0,0-6.4-3.5,1.15,1.15,0,0,1-.7-1.3,1.32,1.32,0,0,1,1.3-1.3h0a.6.6,0,0,1,.4.1h.1a33.49,33.49,0,0,1,14.7,11.6,1.82,1.82,0,0,0,2.5.7,1.7,1.7,0,0,0,.9-1.6h0a2.46,2.46,0,0,0-.4-1.1c-2.5-3.6-9.1-9.2-9-9.1a1.28,1.28,0,0,1-.2-1.8,1.23,1.23,0,0,1,1-.5,4.33,4.33,0,0,1,.5.1c.7.5.2.1.2.1l-.2-.1a45.37,45.37,0,0,1,4.8,3.9,3.13,3.13,0,0,0,1,.5h.4a1.38,1.38,0,0,1,1.6,1.2v.9h0a1.9,1.9,0,1,0,1.9-1.9h0a1.62,1.62,0,0,1-1.6-1.4s.1-.6.1-.8a2,2,0,0,0-.6-1.4c-7.4-7.6-18.3-11.9-29.9-11.9a42.75,42.75,0,1,0,42.5,48.5h0v-.5A2.11,2.11,0,0,0,411.1,159.7Z" transform="translate(-3.78 -17.39)"></path></g></svg>