<svg xmlns="http://www.w3.org/2000/svg" width="178.764" height="216.614" viewBox="0 0 178.764 216.614"><defs><style>.a{fill:#1c1c1a;stroke:rgba(0,0,0,0);}</style></defs><g transform="translate(-683.129 -779.387)"><circle class="a" cx="5.515" cy="5.515" r="5.515" transform="translate(695.71 831.144)"></circle><circle class="a" cx="5.515" cy="5.515" r="5.515" transform="translate(721.414 831.144)"></circle><circle class="a" cx="5.515" cy="5.515" r="5.515" transform="translate(721.414 857.55)"></circle><circle class="a" cx="5.515" cy="5.515" r="5.515" transform="translate(721.414 882.318)"></circle><circle class="a" cx="5.515" cy="5.515" r="5.515" transform="translate(695.706 882.318)"></circle><circle class="a" cx="5.515" cy="5.515" r="5.515" transform="translate(695.706 856.381)"></circle><path class="a" d="M700.271,862.3v16.4a.9.9,0,0,0,1.8,0h0V862.3a.9.9,0,0,0-1.8,0Z"></path><path class="a" d="M726.029,846.389v16.4a.9.9,0,1,0,1.8,0v-16.4a.9.9,0,0,0-1.8,0Z"></path><path class="a" d="M710.235,837.559h16.4a.9.9,0,0,0,0-1.8h-16.4a.9.9,0,0,0,0,1.8Z"></path><path class="a" d="M701.466,888.733h16.4a.9.9,0,0,0,0-1.8h-16.4a.9.9,0,1,0,0,1.8Z"></path><circle class="a" cx="5.515" cy="5.515" r="5.515" transform="translate(695.572 779.887)"></circle><circle class="a" cx="5.515" cy="5.515" r="5.515" transform="translate(721.438 779.887)"></circle><circle class="a" cx="5.515" cy="5.515" r="5.515" transform="translate(747.142 779.887)"></circle><circle class="a" cx="5.515" cy="5.515" r="5.515" transform="translate(747.142 806.404)"></circle><circle class="a" cx="5.515" cy="5.515" r="5.515" transform="translate(747.142 831.144)"></circle><circle class="a" cx="5.515" cy="5.515" r="5.515" transform="translate(721.434 831.144)"></circle><circle class="a" cx="5.515" cy="5.515" r="5.515" transform="translate(721.434 805.235)"></circle><circle class="a" cx="5.515" cy="5.515" r="5.515" transform="translate(695.626 805.235)"></circle><path class="a" d="M700.241,785.8v16.4a.9.9,0,0,0,1.8,0V785.8a.9.9,0,0,0-1.8,0Z"></path><path class="a" d="M726,811.154v16.4a.9.9,0,0,0,1.8,0v-16.4a.9.9,0,0,0-1.8,0Z"></path><path class="a" d="M751.757,795.243v16.4a.9.9,0,1,0,1.8,0v-16.4a.9.9,0,0,0-1.8,0Z"></path><path class="a" d="M735.963,787.138h16.4a.9.9,0,1,0,0-1.8h-16.4a.9.9,0,1,0,0,1.8Z"></path><path class="a" d="M727.194,837.559h16.4a.9.9,0,0,0,0-1.8h-16.4a.9.9,0,0,0,0,1.8Z"></path><circle class="a" cx="5.515" cy="5.515" r="5.515" transform="translate(695.706 882.318)"></circle><circle class="a" cx="5.515" cy="5.515" r="5.515" transform="translate(695.706 908.696)"></circle><circle class="a" cx="5.515" cy="5.515" r="5.515" transform="translate(695.706 933.429)"></circle><path class="a" d="M700.321,897.538v16.4a.9.9,0,1,0,1.8,0v-16.4a.9.9,0,1,0-1.8,0Z"></path><path class="a" d="M684.529,888.733h16.4a.9.9,0,0,0,0-1.8h-16.4a.9.9,0,0,0,0,1.8Z"></path><circle class="a" cx="5.515" cy="5.515" r="5.515" transform="translate(747.143 831.144)"></circle><circle class="a" cx="5.515" cy="5.515" r="5.515" transform="translate(773.01 831.144)"></circle><circle class="a" cx="5.515" cy="5.515" r="5.515" transform="translate(798.713 831.144)"></circle><circle class="a" cx="5.515" cy="5.515" r="5.515" transform="translate(798.713 857.55)"></circle><circle class="a" cx="5.515" cy="5.515" r="5.515" transform="translate(798.713 882.318)"></circle><circle class="a" cx="5.515" cy="5.515" r="5.515" transform="translate(773.006 882.318)"></circle><circle class="a" cx="5.515" cy="5.515" r="5.515" transform="translate(773.006 856.381)"></circle><circle class="a" cx="5.515" cy="5.515" r="5.515" transform="translate(747.197 856.381)"></circle><path class="a" d="M751.812,836.951v16.4a.9.9,0,0,0,1.8,0v-16.4a.9.9,0,0,0-1.8,0Z"></path><path class="a" d="M777.571,862.3v16.4a.9.9,0,0,0,1.8,0h0V862.3a.9.9,0,0,0-1.8,0Z"></path><path class="a" d="M803.329,846.389v16.4a.9.9,0,0,0,1.8,0v-16.4a.9.9,0,0,0-1.8,0Z"></path><path class="a" d="M787.529,837.559h16.4a.9.9,0,0,0,0-1.8h-16.4a.9.9,0,0,0,0,1.8Z"></path><path class="a" d="M778.765,888.733h16.4a.9.9,0,1,0,0-1.8h-16.4a.9.9,0,1,0,0,1.8Z"></path><circle class="a" cx="5.515" cy="5.515" r="5.515" transform="translate(772.872 779.887)"></circle><circle class="a" cx="5.515" cy="5.515" r="5.515" transform="translate(798.738 779.887)"></circle><circle class="a" cx="5.515" cy="5.515" r="5.515" transform="translate(824.442 779.887)"></circle><circle class="a" cx="5.515" cy="5.515" r="5.515" transform="translate(824.442 806.404)"></circle><circle class="a" cx="5.515" cy="5.515" r="5.515" transform="translate(824.442 831.144)"></circle><circle class="a" cx="5.515" cy="5.515" r="5.515" transform="translate(798.734 831.144)"></circle><circle class="a" cx="5.515" cy="5.515" r="5.515" transform="translate(798.734 805.235)"></circle><circle class="a" cx="5.515" cy="5.515" r="5.515" transform="translate(772.925 805.235)"></circle><path class="a" d="M777.541,785.8v16.4a.9.9,0,0,0,1.8,0V785.8a.9.9,0,0,0-1.8,0Z"></path><path class="a" d="M803.3,811.154v16.4a.9.9,0,0,0,1.8,0v-16.4a.9.9,0,0,0-1.8,0Z"></path><path class="a" d="M829.057,795.243v16.4a.9.9,0,1,0,1.8,0v-16.4a.9.9,0,0,0-1.8,0Z"></path><path class="a" d="M813.263,787.138h16.4a.9.9,0,0,0,0-1.8h-16.4a.9.9,0,1,0,0,1.8Z"></path><path class="a" d="M804.493,837.559h16.4a.9.9,0,0,0,0-1.8h-16.4a.9.9,0,0,0,0,1.8Z"></path><circle class="a" cx="5.515" cy="5.515" r="5.515" transform="translate(695.707 933.429)"></circle><circle class="a" cx="5.515" cy="5.515" r="5.515" transform="translate(721.574 933.429)"></circle><circle class="a" cx="5.515" cy="5.515" r="5.515" transform="translate(747.278 933.429)"></circle><circle class="a" cx="5.515" cy="5.515" r="5.515" transform="translate(747.278 959.842)"></circle><circle class="a" cx="5.515" cy="5.515" r="5.515" transform="translate(747.278 984.471)"></circle><circle class="a" cx="5.515" cy="5.515" r="5.515" transform="translate(721.57 984.471)"></circle><circle class="a" cx="5.515" cy="5.515" r="5.515" transform="translate(721.57 958.673)"></circle><circle class="a" cx="5.515" cy="5.515" r="5.515" transform="translate(695.761 958.673)"></circle><path class="a" d="M700.376,939.243v16.4a.9.9,0,0,0,1.8,0v-16.4a.9.9,0,0,0-1.8,0Z"></path><path class="a" d="M726.135,964.592v16.4a.9.9,0,1,0,1.8,0v-16.4a.9.9,0,0,0-1.8,0Z"></path><path class="a" d="M751.893,948.682v16.4a.9.9,0,1,0,1.8,0v-16.4a.9.9,0,1,0-1.8,0Z"></path><path class="a" d="M736.1,939.844h16.4a.9.9,0,0,0,0-1.8H736.1a.9.9,0,0,0,0,1.8Z"></path><path class="a" d="M727.329,990.887h16.4a.9.9,0,0,0,0-1.8h-16.4a.9.9,0,0,0,0,1.8Z"></path><circle class="a" cx="5.515" cy="5.515" r="5.515" transform="translate(721.436 882.318)"></circle><circle class="a" cx="5.515" cy="5.515" r="5.515" transform="translate(747.302 882.318)"></circle><circle class="a" cx="5.515" cy="5.515" r="5.515" transform="translate(773.006 882.318)"></circle><circle class="a" cx="5.515" cy="5.515" r="5.515" transform="translate(773.006 908.696)"></circle><circle class="a" cx="5.515" cy="5.515" r="5.515" transform="translate(773.006 933.429)"></circle><circle class="a" cx="5.515" cy="5.515" r="5.515" transform="translate(747.298 933.429)"></circle><circle class="a" cx="5.515" cy="5.515" r="5.515" transform="translate(747.298 907.527)"></circle><circle class="a" cx="5.515" cy="5.515" r="5.515" transform="translate(721.489 907.527)"></circle><path class="a" d="M726.1,888.1v16.4a.9.9,0,0,0,1.8,0V888.1a.9.9,0,0,0-1.8,0Z"></path><path class="a" d="M751.863,913.446v16.4a.9.9,0,0,0,1.8,0v-16.4a.9.9,0,0,0-1.8,0Z"></path><path class="a" d="M777.621,897.538v16.4a.9.9,0,0,0,1.8,0v-16.4a.9.9,0,0,0-1.8,0Z"></path><path class="a" d="M761.829,888.733h16.4a.9.9,0,1,0,0-1.8h-16.4a.9.9,0,0,0,0,1.8Z"></path><path class="a" d="M753.057,939.844h16.4a.9.9,0,0,0,0-1.8h-16.4a.9.9,0,0,0,0,1.8Z"></path><circle class="a" cx="5.515" cy="5.515" r="5.515" transform="translate(824.446 831.144)"></circle><circle class="a" cx="5.515" cy="5.515" r="5.515" transform="translate(850.312 831.144)"></circle><circle class="a" cx="5.515" cy="5.515" r="5.515" transform="translate(850.308 882.318)"></circle><circle class="a" cx="5.515" cy="5.515" r="5.515" transform="translate(850.308 856.381)"></circle><circle class="a" cx="5.515" cy="5.515" r="5.515" transform="translate(824.5 856.381)"></circle><path class="a" d="M829.115,836.951v16.4a.9.9,0,0,0,1.8,0v-16.4a.9.9,0,0,0-1.8,0Z"></path><path class="a" d="M854.873,862.3v16.4a.9.9,0,0,0,1.8,0h0V862.3a.9.9,0,0,0-1.8,0Z"></path><circle class="a" cx="5.515" cy="5.515" r="5.515" transform="translate(850.174 779.887)"></circle><circle class="a" cx="5.515" cy="5.515" r="5.515" transform="translate(850.228 805.235)"></circle><path class="a" d="M854.843,785.8v16.4a.9.9,0,0,0,1.8,0V785.8a.9.9,0,0,0-1.8,0Z"></path><circle class="a" cx="5.515" cy="5.515" r="5.515" transform="translate(773.01 933.429)"></circle><circle class="a" cx="5.515" cy="5.515" r="5.515" transform="translate(798.876 933.429)"></circle><circle class="a" cx="5.515" cy="5.515" r="5.515" transform="translate(824.58 933.429)"></circle><circle class="a" cx="5.515" cy="5.515" r="5.515" transform="translate(824.58 959.842)"></circle><circle class="a" cx="5.515" cy="5.515" r="5.515" transform="translate(824.58 984.471)"></circle><circle class="a" cx="5.515" cy="5.515" r="5.515" transform="translate(798.872 984.471)"></circle><circle class="a" cx="5.515" cy="5.515" r="5.515" transform="translate(798.872 958.673)"></circle><circle class="a" cx="5.515" cy="5.515" r="5.515" transform="translate(773.064 958.673)"></circle><path class="a" d="M777.679,939.243v16.4a.9.9,0,1,0,1.8,0v-16.4a.9.9,0,0,0-1.8,0Z"></path><path class="a" d="M803.437,964.592v16.4a.9.9,0,1,0,1.8,0v-16.4a.9.9,0,0,0-1.8,0Z"></path><path class="a" d="M829.2,948.682v16.4a.9.9,0,1,0,1.8,0v-16.4a.9.9,0,1,0-1.8,0Z"></path><path class="a" d="M813.4,939.844h16.4a.9.9,0,0,0,0-1.8H813.4a.9.9,0,0,0,0,1.8Z"></path><path class="a" d="M804.629,990.887h16.4a.9.9,0,0,0,0-1.8h-16.4a.9.9,0,0,0,0,1.8Z"></path><circle class="a" cx="5.515" cy="5.515" r="5.515" transform="translate(798.738 882.318)"></circle><circle class="a" cx="5.515" cy="5.515" r="5.515" transform="translate(824.604 882.318)"></circle><circle class="a" cx="5.515" cy="5.515" r="5.515" transform="translate(850.308 882.318)"></circle><circle class="a" cx="5.515" cy="5.515" r="5.515" transform="translate(850.308 908.696)"></circle><circle class="a" cx="5.515" cy="5.515" r="5.515" transform="translate(850.308 933.429)"></circle><circle class="a" cx="5.515" cy="5.515" r="5.515" transform="translate(824.6 933.429)"></circle><circle class="a" cx="5.515" cy="5.515" r="5.515" transform="translate(824.6 907.527)"></circle><circle class="a" cx="5.515" cy="5.515" r="5.515" transform="translate(798.792 907.527)"></circle><path class="a" d="M803.407,888.1v16.4a.9.9,0,0,0,1.8,0V888.1a.9.9,0,0,0-1.8,0Z"></path><path class="a" d="M829.165,913.446v16.4a.9.9,0,0,0,1.8,0v-16.4a.9.9,0,0,0-1.8,0Z"></path><path class="a" d="M854.923,897.538v16.4a.9.9,0,0,0,1.8,0v-16.4a.9.9,0,0,0-1.8,0Z"></path><path class="a" d="M839.129,888.733h16.4a.9.9,0,1,0,0-1.8h-16.4a.9.9,0,1,0,0,1.8Z"></path><path class="a" d="M830.36,939.844h16.4a.9.9,0,0,0,0-1.8h-16.4a.9.9,0,0,0,0,1.8Z"></path><circle class="a" cx="5.515" cy="5.515" r="5.515" transform="translate(850.309 933.429)"></circle><circle class="a" cx="5.515" cy="5.515" r="5.515" transform="translate(850.363 958.673)"></circle><path class="a" d="M854.979,939.243v16.4a.9.9,0,1,0,1.8,0v-16.4a.9.9,0,0,0-1.8,0Z"></path></g></svg>