<svg xmlns="http://www.w3.org/2000/svg" width="40" height="47.186" viewBox="0 0 40 47.186"><defs><style>.a{fill:#e99b17;}</style></defs><g transform="translate(-6 -1.332)"><path class="a" d="M48.754,43.472c0-3.662-4.681-5.762-8.2-7.022L40.033,37.9c4.833,1.731,7.182,3.553,7.182,5.574,0,2.174-2.583,4.052-8.127,5.91-3.117,1.036-6.857,1.961-10.473,2.855-3.678.91-7.482,1.851-10.682,2.923l.488,1.462c3.142-1.049,6.915-1.982,10.564-2.885S36.4,51.9,39.575,50.848C43.848,49.412,48.754,47.278,48.754,43.472Z" transform="translate(-2.754 -8.104)"></path><rect class="a" width="2.154" height="1.538" transform="translate(34.086 14.506) rotate(-45)"></rect><rect class="a" width="1.538" height="2.154" transform="translate(25.231 9.32)"></rect><rect class="a" width="1.538" height="2.154" transform="translate(15.303 14.07) rotate(-45)"></rect><path class="a" d="M35.615,3.437c-2.965.943-6.408,1.794-9.752,2.625-3.679.91-7.483,1.851-10.684,2.923C10.905,10.405,6,12.528,6,16.332c0,3.515,4.235,5.528,7.42,6.736l.545-1.438c-4.324-1.64-6.426-3.373-6.426-5.3,0-2.142,2.658-4.068,8.128-5.892,3.143-1.049,6.917-1.979,10.564-2.885,3.36-.832,6.819-1.692,9.827-2.645l.572,1.9,3.737-4.113-5.385-1.36Z"></path><path class="a" d="M26.4,47.859a4.308,4.308,0,1,0,8.615,0V47H26.4Z" transform="translate(-4.708 -10.539)"></path><path class="a" d="M18.974,26.446a10.041,10.041,0,0,0,5.7,9.993v2.172h8.615V36.439a10.048,10.048,0,1,0-14.318-9.993Zm5.128.923a4.39,4.39,0,0,1,.046-.632.538.538,0,0,0-.285-.538l-.334-.185a.538.538,0,0,1-.212-.754l.923-1.532a.591.591,0,0,1,.788-.2l.338.186a.615.615,0,0,0,.657-.054,4.918,4.918,0,0,1,1.077-.6.567.567,0,0,0,.376-.516v-.37a.565.565,0,0,1,.577-.552h1.853a.565.565,0,0,1,.577.552v.37a.567.567,0,0,0,.376.516,4.918,4.918,0,0,1,1.077.6.615.615,0,0,0,.657.054l.338-.186a.591.591,0,0,1,.788.2l.923,1.532a.538.538,0,0,1-.212.754L34.1,26.2a.538.538,0,0,0-.285.538,4.344,4.344,0,0,1,0,1.263.538.538,0,0,0,.285.538l.334.184a.538.538,0,0,1,.212.754l-.923,1.532a.591.591,0,0,1-.788.2l-.338-.186a.615.615,0,0,0-.657.054,4.918,4.918,0,0,1-1.077.6.567.567,0,0,0-.376.516v.37a.565.565,0,0,1-.577.552H28.061a.565.565,0,0,1-.577-.552v-.37a.567.567,0,0,0-.376-.516,4.918,4.918,0,0,1-1.077-.6.615.615,0,0,0-.657-.054l-.338.186a.591.591,0,0,1-.788-.2l-.923-1.532a.538.538,0,0,1,.212-.754l.334-.184A.538.538,0,0,0,24.155,28a4.384,4.384,0,0,1-.053-.632Z" transform="translate(-2.984 -3.689)"></path><path class="a" d="M31.462,31.64a1.794,1.794,0,1,0-1.269-.525A1.8,1.8,0,0,0,31.462,31.64Z" transform="translate(-5.462 -6.165)"></path></g></svg>