<svg xmlns="http://www.w3.org/2000/svg" width="40" height="28.267" viewBox="0 0 40 28.267"><defs><style>.a{fill:#e99b17;}</style></defs><g transform="translate(-2.237 -16.365)"><path class="a" d="M20.561,44.182c-.462-.168-.671-.252-1.133-.42a3.8,3.8,0,0,0-.084-2.35,7.324,7.324,0,0,0-1.553-2.35.314.314,0,0,0-.5,0,3.166,3.166,0,0,0-.5,2.518,3.554,3.554,0,0,0,.629,1.259,15.832,15.832,0,0,1-2.266-1.427,3.952,3.952,0,0,0,.5-2.266,7.171,7.171,0,0,0-.881-2.6.316.316,0,0,0-.5-.084,3.324,3.324,0,0,0-1.091,2.308,3.674,3.674,0,0,0,.294,1.343,25.548,25.548,0,0,1-1.846-1.846,4.266,4.266,0,0,0,1.049-2.1,6.537,6.537,0,0,0-.252-2.728.328.328,0,0,0-.462-.21A3.29,3.29,0,0,0,10.363,35.2a3.845,3.845,0,0,0-.042,1.385,19.547,19.547,0,0,1-1.343-2.224,4.473,4.473,0,0,0,1.511-1.8,6.119,6.119,0,0,0,.378-2.686c0-.21-.21-.378-.378-.294a3.3,3.3,0,0,0-2.014,1.553,3.724,3.724,0,0,0-.336,1.343A17.021,17.021,0,0,1,7.341,30,4.426,4.426,0,0,0,9.23,28.613a6.947,6.947,0,0,0,1.007-2.56c.042-.21-.126-.42-.294-.378a3.326,3.326,0,0,0-2.308,1.049,3.554,3.554,0,0,0-.629,1.259c-.126-1.049-.168-1.553-.21-2.644a4.056,4.056,0,0,0,2.14-.923,6.466,6.466,0,0,0,1.595-2.35.317.317,0,0,0-.21-.462,3.352,3.352,0,0,0-2.518.5A3.871,3.871,0,0,0,6.88,23.2a17.927,17.927,0,0,1,.5-2.938c.084-.42-.042-.8-.336-.881s-.629.21-.713.629a19.56,19.56,0,0,0-.546,3.063A8.072,8.072,0,0,0,5.2,21.688,3.618,3.618,0,0,0,3.1,20.01c-.168-.042-.378.21-.42.546a6.369,6.369,0,0,0,.881,3.609,2.931,2.931,0,0,0,2.1,1.175,15.11,15.11,0,0,0,.21,2.77,4.963,4.963,0,0,0-.923-1.175,4.009,4.009,0,0,0-2.434-1.091c-.21,0-.336.294-.252.588A6.494,6.494,0,0,0,3.984,29.62a2.827,2.827,0,0,0,2.308.629,14.463,14.463,0,0,0,.839,2.6A6.052,6.052,0,0,0,6,31.928a3.59,3.59,0,0,0-2.6-.462c-.21.042-.252.378-.126.629A6.145,6.145,0,0,0,5.663,34.74a2.981,2.981,0,0,0,2.392.084,19.5,19.5,0,0,0,1.427,2.35,4.928,4.928,0,0,0-1.343-.629,3.51,3.51,0,0,0-2.644.168c-.168.084-.168.42.042.629A6.273,6.273,0,0,0,8.475,39.4a3.011,3.011,0,0,0,2.35-.462,17.1,17.1,0,0,0,1.93,1.972,4.36,4.36,0,0,0-1.469-.294,3.654,3.654,0,0,0-2.518.755c-.168.126-.084.42.168.629a6.45,6.45,0,0,0,3.357,1.343,2.9,2.9,0,0,0,2.182-1.007A14.082,14.082,0,0,0,16.868,43.8a6.074,6.074,0,0,0-1.511.042,3.791,3.791,0,0,0-2.308,1.3c-.126.168.042.462.336.588a6.671,6.671,0,0,0,3.651.546,2.941,2.941,0,0,0,1.93-1.469,10.442,10.442,0,0,0,1.217.462c.42.126.839,0,.923-.294C21.232,44.644,20.938,44.308,20.561,44.182Z" transform="translate(0 -1.741)"></path><path class="a" d="M69.642,29.72a6.494,6.494,0,0,0,1.721-3.189c.084-.294-.084-.629-.252-.588a3.565,3.565,0,0,0-2.434,1.091,6.338,6.338,0,0,0-.923,1.175,15.11,15.11,0,0,0,.21-2.77,2.936,2.936,0,0,0,2.1-1.175,6.22,6.22,0,0,0,.881-3.609c0-.336-.21-.588-.42-.546a3.743,3.743,0,0,0-2.1,1.679,5.727,5.727,0,0,0-.588,1.385,15.662,15.662,0,0,0-.546-3.063c-.126-.42-.462-.713-.713-.629-.294.084-.42.5-.336.881a17.925,17.925,0,0,1,.5,2.938,3.871,3.871,0,0,0-.923-1.091,3.01,3.01,0,0,0-2.518-.5.317.317,0,0,0-.21.462,7.242,7.242,0,0,0,1.595,2.35,3.861,3.861,0,0,0,2.14.923,14.043,14.043,0,0,1-.21,2.644,3.554,3.554,0,0,0-.629-1.259,3,3,0,0,0-2.308-1.049.294.294,0,0,0-.294.378,6.277,6.277,0,0,0,1.007,2.56A4.2,4.2,0,0,0,66.284,30.1a17.021,17.021,0,0,1-.8,2.476,3.723,3.723,0,0,0-.336-1.343,3.3,3.3,0,0,0-2.014-1.553.309.309,0,0,0-.378.294,6.051,6.051,0,0,0,.378,2.686,4.171,4.171,0,0,0,1.511,1.8A14.913,14.913,0,0,1,63.3,36.686a3.09,3.09,0,0,0-.042-1.385,3.166,3.166,0,0,0-1.595-1.972.339.339,0,0,0-.462.21,6.453,6.453,0,0,0-.252,2.728A4.465,4.465,0,0,0,62,38.365a12.8,12.8,0,0,1-1.846,1.846,3.674,3.674,0,0,0,.294-1.343A3.324,3.324,0,0,0,59.36,36.56a.353.353,0,0,0-.5.084,6.456,6.456,0,0,0-.881,2.6,4.218,4.218,0,0,0,.5,2.266,13.8,13.8,0,0,1-2.266,1.427,2.974,2.974,0,0,0,.629-1.259,3.166,3.166,0,0,0-.5-2.518c-.084-.168-.336-.168-.5,0a6.873,6.873,0,0,0-1.553,2.35,4.137,4.137,0,0,0-.084,2.35c-.462.168-.671.252-1.133.42-.42.126-.671.462-.588.755s.5.42.923.294c.5-.168.713-.252,1.217-.462a2.941,2.941,0,0,0,1.93,1.469,6.309,6.309,0,0,0,3.651-.546c.294-.126.462-.42.336-.588a3.6,3.6,0,0,0-2.308-1.3,6.074,6.074,0,0,0-1.511-.042,22.773,22.773,0,0,0,2.392-1.469A2.9,2.9,0,0,0,61.291,43.4a6.12,6.12,0,0,0,3.357-1.343c.252-.168.336-.5.168-.629a3.734,3.734,0,0,0-2.518-.755,8.277,8.277,0,0,0-1.469.294,17.1,17.1,0,0,0,1.93-1.972,2.848,2.848,0,0,0,2.35.462A5.994,5.994,0,0,0,68.047,37.4c.21-.252.21-.546.042-.629a3.726,3.726,0,0,0-2.644-.168,5.587,5.587,0,0,0-1.343.629,16.7,16.7,0,0,0,1.427-2.35,2.818,2.818,0,0,0,2.392-.084,6.145,6.145,0,0,0,2.392-2.644c.126-.294.084-.588-.126-.629a3.567,3.567,0,0,0-2.6.462,6.052,6.052,0,0,0-1.133.923,14.464,14.464,0,0,0,.839-2.6A2.991,2.991,0,0,0,69.642,29.72Z" transform="translate(-29.147 -1.799)"></path><path class="a" d="M46.548,24.018a8.649,8.649,0,1,0-11.163,9.19l1.846,3.651a.8.8,0,0,0,1.427,0L40.5,33.208A8.608,8.608,0,0,0,46.548,24.018Zm-6.379,5.12L38.2,28a.315.315,0,0,0-.378,0l-1.972,1.133a.624.624,0,0,1-.923-.671l.462-2.224a.359.359,0,0,0-.126-.378l-1.679-1.553a.626.626,0,0,1,.378-1.091l2.266-.252a.316.316,0,0,0,.294-.21l.923-2.1a.646.646,0,0,1,1.175,0l.965,2.1a.316.316,0,0,0,.294.21l2.266.252a.64.64,0,0,1,.378,1.091l-1.679,1.553a.513.513,0,0,0-.126.378l.462,2.224A.708.708,0,0,1,40.169,29.137Z" transform="translate(-15.706)"></path></g></svg>