<svg xmlns="http://www.w3.org/2000/svg" width="40" height="25.037" viewBox="0 0 40 25.037"><defs><style>.a{fill:#e99b17;}</style></defs><g transform="translate(-10.325 -17.685)"><path class="a" d="M16.826,33.933a1.192,1.192,0,0,1-.016.168l3.28,3.472a14.435,14.435,0,0,0,4.032,3.008l4.1,2.072a.634.634,0,0,0,.712-.1.642.642,0,0,0-.1-1.04L26.866,40.4a.8.8,0,0,1,.792-1.392l1.352.768,4.328,2.088a.76.76,0,0,0,.9-.184.773.773,0,0,0,.176-.616.735.735,0,0,0-.36-.528l-4.768-2.84a.8.8,0,1,1,.824-1.376l2.88,1.72,3.016,1.288a1.375,1.375,0,0,0,1.872-1.576,1.388,1.388,0,0,0-.624-.856l-2.3-1.392v-.008l-2.84-1.72a.8.8,0,1,1,.824-1.368l7.312,4.432a1.457,1.457,0,0,0,1.9-.312,1.441,1.441,0,0,0,.328-1.168,1.414,1.414,0,0,0-.648-1.016L28.962,25.813a10.542,10.542,0,0,1-7.968.7,3.862,3.862,0,0,1-2.816-3.7.8.8,0,0,1,.488-.736c.36-.144,8.744-3.656,13.536-3.656.272,0,.552.016.832.032a13.4,13.4,0,0,0-5.088-.768c-1.992,0-4.624,1.088-6.944,2.048A23.617,23.617,0,0,1,16.826,21.2Z" transform="translate(0.107)"></path><path class="a" d="M32.153,19.983c-3.8,0-10.416,2.528-12.36,3.312a2.251,2.251,0,0,0,1.584,1.64,8.882,8.882,0,0,0,7.152-.784.806.806,0,0,1,.856.016l13.288,8.8a3.029,3.029,0,0,1,.88.9V22.527a28.111,28.111,0,0,1-3.1-.84A30.241,30.241,0,0,0,32.153,19.983Z" transform="translate(0.157 0.038)"></path><path class="a" d="M48.8,21.628H45.692a.949.949,0,0,0-.952.952V33.9a.949.949,0,0,0,.952.952H48.8a.949.949,0,0,0,.952-.952V22.58A.949.949,0,0,0,48.8,21.628Z" transform="translate(0.569 0.065)"></path><path class="a" d="M11.277,33.593h3.1a.949.949,0,0,0,.952-.952V21.313a.949.949,0,0,0-.952-.952h-3.1a.949.949,0,0,0-.952.952V32.641A.949.949,0,0,0,11.277,33.593Z" transform="translate(0 0.044)"></path></g></svg>