<svg xmlns="http://www.w3.org/2000/svg" width="40" height="39.991" viewBox="0 0 40 39.991"><defs><style>.a{fill:#e99b17;}</style></defs><g transform="translate(-0.002 -0.003)"><path class="a" d="M13.27.012A3.9,3.9,0,0,0,12.027.3c-1.678.681-2.4,2.269-3.011,3.644A13.051,13.051,0,0,1,7.333,7.13,13.037,13.037,0,0,1,4.124,8.752c-1.39.591-3,1.281-3.7,2.949s-.08,3.3.458,4.708A13.125,13.125,0,0,1,1.945,19.85,13.176,13.176,0,0,1,.83,23.281C.262,24.676-.385,26.292.291,27.97s2.278,2.4,3.654,3.006a13.093,13.093,0,0,1,3.181,1.687,13.022,13.022,0,0,1,1.635,3.214c.591,1.39,1.281,2.987,2.945,3.7s3.294.08,4.7-.458a13.044,13.044,0,0,1,3.446-1.054,12.925,12.925,0,0,1,3.427,1.111c1.394.562,3.02,1.21,4.7.529s2.392-2.264,3-3.639a13.32,13.32,0,0,1,1.692-3.2,13.16,13.16,0,0,1,3.209-1.631c1.385-.591,2.982-1.276,3.691-2.945s.09-3.3-.449-4.7a13.125,13.125,0,0,1-1.063-3.441,13.1,13.1,0,0,1,1.12-3.432c.562-1.394,1.215-3.011.534-4.689s-2.278-2.4-3.654-3.006a13.208,13.208,0,0,1-3.181-1.683,13.292,13.292,0,0,1-1.635-3.224C30.655,2.73,29.964,1.132,28.3.428S25,.334,23.6.877a13.375,13.375,0,0,1-3.455,1.063A13.168,13.168,0,0,1,16.725.82,7.952,7.952,0,0,0,13.27.012ZM20,8.137A11.861,11.861,0,1,1,8.142,20,11.882,11.882,0,0,1,20,8.137Zm0,2.5A9.361,9.361,0,1,0,29.359,20,9.336,9.336,0,0,0,20,10.638Zm4.3,5.483a1.247,1.247,0,0,1,1.205,1.29,1.228,1.228,0,0,1-.435.908l-5.54,4.9a1.245,1.245,0,0,1-1.763-.113l0,0-2.4-2.77A1.25,1.25,0,1,1,17.1,18.545a1.318,1.318,0,0,1,.132.151l1.579,1.81,4.6-4.06a1.234,1.234,0,0,1,.756-.326Z" transform="translate(0 0)"></path></g></svg>