<svg xmlns="http://www.w3.org/2000/svg" width="39.116" height="27.081" viewBox="0 0 39.116 27.081"><defs><style>.a{fill:#e99b17;}</style></defs><path class="a" d="M2.045,9.251,3.312,2.124A26.265,26.265,0,0,1,5.628-4.784a35.783,35.783,0,0,1,4.553-7.087,31.363,31.363,0,0,1,6.434-5.958l4.276,4.117a78.547,78.547,0,0,0-5.483,7.423,21.209,21.209,0,0,0-3.227,8.255L10.914,9.251Zm20.271,0,1.267-7.126A26.265,26.265,0,0,1,25.9-4.784a35.783,35.783,0,0,1,4.553-7.087,31.363,31.363,0,0,1,6.434-5.958l4.276,4.117a78.547,78.547,0,0,0-5.483,7.423,21.21,21.21,0,0,0-3.227,8.255L31.184,9.251Z" transform="translate(-2.045 17.83)"></path></svg>