<svg xmlns="http://www.w3.org/2000/svg" xmlns:xlink="http://www.w3.org/1999/xlink" id="Calque_1" x="0px" y="0px" viewBox="0 0 21.5 24" style="enable-background:new 0 0 21.5 24;" xml:space="preserve"><style type="text/css">	.st0{fill:#FFFFFF;}</style><path id="ic_contact" class="st0" d="M10.8,24c5.8-0.1,10.8-7.4,10.8-13.2C21.5,4.8,16.7,0,10.8,0S0,4.8,0,10.8 c0,5.9,4.8,10.8,10.8,10.8c0,0,0,0,0,0c0,0.4,0,0.8,0,1.2L10.8,24z M15.7,9.9c0.8,0,1.4,0.6,1.4,1.4s-0.6,1.4-1.4,1.4 c-0.8,0-1.4-0.6-1.4-1.4c0-0.4,0.1-0.7,0.4-1C14.9,10,15.3,9.9,15.7,9.9z M5.9,12.7c-0.8,0-1.4-0.6-1.4-1.4c0-0.8,0.6-1.4,1.4-1.4 c0.8,0,1.4,0.6,1.4,1.4c0,0,0,0,0,0C7.3,12,6.7,12.7,5.9,12.7z M10.8,12.7c-0.8,0-1.4-0.6-1.4-1.4c0-0.8,0.6-1.4,1.4-1.4 c0.8,0,1.4,0.6,1.4,1.4C12.1,12,11.5,12.7,10.8,12.7L10.8,12.7z"></path></svg>