<svg xmlns="http://www.w3.org/2000/svg" width="40" height="40" viewBox="0 0 40 40"><defs><style>.a{fill:#e99b17;}</style></defs><g transform="translate(-49.338 -49.339)"><g transform="translate(49.338 49.339)"><path class="a" d="M338.083,336.249c-.7-.067-1.41-.135-2.082-.248.109.647.179,1.339.248,2.013.178,1.745.363,3.55,1.189,4.376a3.518,3.518,0,1,0,4.976-4.976C341.582,336.584,339.8,336.414,338.083,336.249Z" transform="translate(-308.259 -308.259)"></path><path class="a" d="M100.39,337.437a3.518,3.518,0,0,0,4.976,4.976c.83-.833,1-2.611,1.166-4.331.067-.7.135-1.41.248-2.082-.647.109-1.339.18-2.013.248C103.021,336.427,101.216,336.611,100.39,337.437Z" transform="translate(-94.521 -308.258)"></path><path class="a" d="M104.459,106.514c.7.067,1.41.135,2.082.248-.109-.647-.179-1.339-.248-2.013-.178-1.745-.363-3.55-1.189-4.376a3.518,3.518,0,0,0-4.976,4.976C100.961,106.178,102.739,106.349,104.459,106.514Z" transform="translate(-94.283 -94.504)"></path><path class="a" d="M342.391,105.1a3.518,3.518,0,0,0-4.976-4.976c-.83.832-1,2.611-1.166,4.331-.067.7-.135,1.41-.248,2.082.647-.109,1.339-.179,2.013-.248C339.76,106.113,341.565,105.928,342.391,105.1Z" transform="translate(-308.26 -94.282)"></path><path class="a" d="M223.009,58.392c.381-.536.82-1.075,1.249-1.6,1.107-1.36,2.251-2.765,2.251-3.932a3.517,3.517,0,1,0-7.034,0c0,1.175,1.137,2.553,2.236,3.885C222.156,57.283,222.613,57.837,223.009,58.392Z" transform="translate(-203.009 -49.339)"></path><path class="a" d="M58.392,223.34c-.536-.381-1.075-.82-1.6-1.249-1.36-1.107-2.765-2.251-3.932-2.251a3.517,3.517,0,1,0,0,7.034c1.175,0,2.552-1.137,3.885-2.236C57.282,224.193,57.836,223.736,58.392,223.34Z" transform="translate(-49.338 -203.34)"></path><path class="a" d="M223.34,369.111c-.381.536-.82,1.075-1.249,1.6-1.107,1.36-2.251,2.766-2.251,3.932a3.517,3.517,0,1,0,7.034,0c0-1.175-1.137-2.553-2.236-3.885C224.193,370.22,223.736,369.667,223.34,369.111Z" transform="translate(-203.34 -338.164)"></path><path class="a" d="M374.645,219.473c-1.175,0-2.553,1.137-3.885,2.236-.54.446-1.094.9-1.649,1.3.536.381,1.075.82,1.6,1.249,1.359,1.107,2.765,2.251,3.932,2.251a3.517,3.517,0,1,0,0-7.034Z" transform="translate(-338.164 -203.008)"></path><path class="a" d="M178.158,172.416l2.269-1.058-2.269-1.058a2.393,2.393,0,0,1-1.244-3.006l.858-2.35-2.35.858a2.405,2.405,0,0,1-3.006-1.244l-1.058-2.269-1.057,2.269a2.415,2.415,0,0,1-2.181,1.39h0a2.4,2.4,0,0,1-.825-.146l-2.35-.858.858,2.35a2.393,2.393,0,0,1-1.244,3.006l-2.269,1.057,2.269,1.058a2.393,2.393,0,0,1,1.244,3.006l-.858,2.35,2.35-.858a2.405,2.405,0,0,1,3.006,1.244l1.057,2.269,1.058-2.269a2.4,2.4,0,0,1,3.006-1.244l2.35.858-.858-2.35A2.393,2.393,0,0,1,178.158,172.416Z" transform="translate(-151.358 -151.358)"></path></g></g></svg>