<svg xmlns="http://www.w3.org/2000/svg" width="37.63" height="40" viewBox="0 0 37.63 40"><defs><style>.a{fill:#e99b17;}</style></defs><g transform="translate(-8.1 -1)"><circle class="a" cx="3.174" cy="3.174" r="3.174" transform="translate(22.671 1)"></circle><circle class="a" cx="3.174" cy="3.174" r="3.174" transform="translate(8.1 9.412)"></circle><circle class="a" cx="3.174" cy="3.174" r="3.174" transform="translate(37.241 9.412)"></circle><path class="a" d="M25.73,66.3a6.36,6.36,0,0,0,5.27.127l17.9-7.555a2.545,2.545,0,0,0,1.3-3.4,2.61,2.61,0,0,0-3.4-1.238l-1.111.476L37.38,58.269a4.629,4.629,0,0,1-.222.6,4.184,4.184,0,0,1-3.778,2.444,4.435,4.435,0,0,1-1.682-.349l-6.349-2.825.635-1.46h0l6.349,2.825a2.569,2.569,0,0,0,2.952-.635,2.723,2.723,0,0,0,.413-.635h0a2.523,2.523,0,0,0-.19-2.381h0A2.521,2.521,0,0,0,34.4,54.9l-1.111-.476h0a8.064,8.064,0,0,0,5.206-7.492,7.936,7.936,0,0,0-15.872,0,7.78,7.78,0,0,0,.825,3.524,8.94,8.94,0,0,1,2.793.762L33.348,54.4h0a9.048,9.048,0,0,1-2.793.476,7.966,7.966,0,0,1-7.111-4.412,9.508,9.508,0,0,0-6.889,1.873L15,53.6v8.254h1.9Z" transform="translate(-4.71 -25.937)"></path></g></svg>