<svg xmlns="http://www.w3.org/2000/svg" width="40" height="40" viewBox="0 0 40 40"><defs><style>.a{fill:#e99b17;}</style></defs><path class="a" d="M36.01,13.988A16.388,16.388,0,1,0,13.988,36.01,16.388,16.388,0,1,0,36.01,13.988Zm-7.43.449,6.982,6.982a14.162,14.162,0,0,1-.293,2.849l-9.538-9.538A14.166,14.166,0,0,1,28.58,14.438ZM15.567,34.149A13.981,13.981,0,0,1,14.9,32.18l2.929,2.929a14.026,14.026,0,0,1-2.165-.755C15.629,34.286,15.6,34.218,15.567,34.149Zm5.853,1.413L14.438,28.58a14.171,14.171,0,0,1,.293-2.85l9.538,9.538A14.131,14.131,0,0,1,21.42,35.562Zm5.259-1.026L15.464,23.321a14.121,14.121,0,0,1,1.051-2.092L28.772,33.485A14.189,14.189,0,0,1,26.679,34.536Zm3.91-2.376L17.84,19.411a14.259,14.259,0,0,1,1.572-1.572L32.16,30.589A14.259,14.259,0,0,1,30.589,32.16Zm2.9-3.389L21.229,16.515a14.14,14.14,0,0,1,2.092-1.051L34.536,26.679A14.119,14.119,0,0,1,33.485,28.771ZM32.18,14.9a13.986,13.986,0,0,1,2.174.764,14.026,14.026,0,0,1,.755,2.165ZM28.608,42.778A14.151,14.151,0,0,1,17.426,37.3,16.389,16.389,0,0,0,37.3,17.427a14.162,14.162,0,0,1-8.69,25.351Z" transform="translate(-5 -5)"></path></svg>