<svg xmlns="http://www.w3.org/2000/svg" viewBox="0 0 331.62 303.68"><defs><style>.cls-1{fill:#fff;}</style></defs><g id="Calque_2" data-name="Calque 2"><g id="Calque_1-2" data-name="Calque 1"><circle class="cls-1" cx="260.19" cy="32.67" r="9.89"></circle><circle class="cls-1" cx="237.36" cy="9.89" r="9.89"></circle><circle class="cls-1" cx="282.75" cy="10.42" r="9.89"></circle><circle class="cls-1" cx="282.75" cy="52.7" r="9.89"></circle><circle class="cls-1" cx="237.36" cy="52.7" r="9.89"></circle><circle class="cls-1" cx="321.73" cy="75.39" r="9.89"></circle><circle class="cls-1" cx="282.75" cy="97.78" r="9.89"></circle><circle class="cls-1" cx="236.89" cy="97.78" r="9.89"></circle><circle class="cls-1" cx="260.03" cy="117.63" r="9.89"></circle><circle class="cls-1" cx="236.89" cy="139.87" r="9.89"></circle><circle class="cls-1" cx="282.35" cy="139.93" r="9.89"></circle><circle class="cls-1" cx="162.62" cy="75.22" r="9.89"></circle><path class="cls-1" d="M55.28,89.65c0,9.35-4,15.4-11.44,18v.22c9,2,14.08,8.58,14.08,19.36,0,13.42-8.47,20.79-21.89,20.79H3.36c-1.1,0-1.43-.33-1.43-1.43V71.39c0-1.1.33-1.43,1.43-1.43H34.6C47.69,70,55.28,76.89,55.28,89.65Zm-21.23-15H7v31.24H34.05c10.23,0,16.06-5.28,16.06-15.73C50.11,80,44.39,74.69,34.05,74.69Zm1.76,35.86H7v32.78H35.81c10.78,0,16.83-5.72,16.83-16.5C52.64,116.27,46.59,110.55,35.81,110.55Z"></path><path class="cls-1" d="M133.93,71.39v2c0,1-.33,1.32-1.43,1.32H108.63v71.94c0,1.1-.33,1.43-1.32,1.43H105c-1.1,0-1.43-.33-1.43-1.43V74.69H79.7c-1.1,0-1.43-.33-1.43-1.32v-2c0-1.1.33-1.43,1.43-1.43h52.8C133.6,70,133.93,70.29,133.93,71.39Z"></path><path class="cls-1" d="M161.21,99.1h2.31c1,0,1.32.21,1.32.9v47.17c0,.69-.33.89-1.32.89h-2.31c-1.1,0-1.43-.2-1.43-.89V100C159.78,99.31,160.11,99.1,161.21,99.1Z"></path><rect class="cls-1" x="178.64" y="73.29" width="136.61" height="3.78"></rect><rect class="cls-1" x="251.98" y="50.81" width="35.87" height="3.78"></rect><rect class="cls-1" x="252.15" y="95.77" width="35.87" height="3.78"></rect><rect class="cls-1" x="230.87" y="138.04" width="35.87" height="3.78"></rect><path class="cls-1" d="M34.65,186.78v86.28H76.83c5.42,0,7.35,1.75,7.35,7.35v15.92c0,5.43-1.93,7.35-7.35,7.35H7.53c-5.6,0-7.53-1.92-7.53-7.35V186.78c0-5.42,1.93-7.35,7.53-7.35H27.3C32.9,179.43,34.65,181.36,34.65,186.78Z"></path><path class="cls-1" d="M200.73,303.68h-18.9c-9.1,0-11.73-1.92-13.13-7.35l-4-12.6h-37.8l-4,12.6c-1.75,5.43-4,7.35-12.78,7.35H91.7c-5.43,0-6.48-2.45-4.73-7.17l40.25-110.95c1.75-5.08,4-6.13,9.1-6.13h20c5.08,0,7.35,1.23,9.11,5.78l40.42,111.3C207.55,301.23,206,303.68,200.73,303.68Zm-54.26-92.4h-1.75a92.69,92.69,0,0,1-3.32,24.33l-6.48,20.65H156.8l-6.48-20.48A110.11,110.11,0,0,1,146.47,211.28Z"></path><path class="cls-1" d="M312.72,212.51c0,11.72-3.67,19.6-12.6,25.72v.7c11.2,4.9,17.68,14.88,17.68,30.1,0,22.58-18.38,34.65-43.05,34.65h-52c-5.6,0-7.52-1.92-7.52-7.35V186.78c0-5.6,1.92-7.52,7.52-7.52h51.28C298.2,179.26,312.72,191.16,312.72,212.51Zm-45.85-5.08h-17v19.25h17c7,0,10.68-2.62,10.68-9.45S273.87,207.43,266.87,207.43Zm3.33,47.43H249.9v20.47h20.3c7.52,0,11.2-3,11.2-10.32C281.4,258,277.72,254.86,270.2,254.86Z"></path></g></g></svg>