<svg xmlns="http://www.w3.org/2000/svg" width="212.595" height="212.595" viewBox="0 0 212.595 212.595">
  <g id="Accompagnement_au_changement" data-name="Accompagnement au changement" transform="translate(-20.247 -8)">
    <path id="Tracé_1" data-name="Tracé 1" d="M76.334,81.4H13.062A5.062,5.062,0,0,1,8,76.334V13.062A5.062,5.062,0,0,1,13.062,8H76.334A5.062,5.062,0,0,1,81.4,13.062V76.334A5.062,5.062,0,0,1,76.334,81.4ZM18.124,71.272H71.272V18.124H18.124Z" transform="translate(12.247)" fill="#d59639"/>
    <path id="Tracé_2" data-name="Tracé 2" d="M100.229,139.458a39.229,39.229,0,1,1,39.229-39.229,39.229,39.229,0,0,1-39.229,39.229Zm0-68.334a29.105,29.105,0,1,0,29.105,29.105,29.105,29.105,0,0,0-29.105-29.105Z" transform="translate(93.384 81.137)" fill="#d59639"/>
    <path id="Tracé_3" data-name="Tracé 3" d="M47.607,34.063a5.062,5.062,0,0,1-4.049-7.972L51.529,14.7a5.062,5.062,0,0,1,8.2,5.8L51.757,31.911A5.062,5.062,0,0,1,47.607,34.063Z" transform="translate(65.271 7.75)" fill="#d59639"/>
    <path id="Tracé_4" data-name="Tracé 4" d="M59.059,35.482a4.859,4.859,0,0,1-2.784-.936L44.759,26.573a5.062,5.062,0,0,1,5.8-8.3l11.414,8a5.062,5.062,0,0,1-2.911,9.212Z" transform="translate(65.208 14.329)" fill="#d59639"/>
    <path id="Tracé_5" data-name="Tracé 5" d="M55.311,99.865a5.048,5.048,0,0,1-4.151-7.947L59.133,80.5a5.062,5.062,0,0,1,8.2,5.821L59.361,97.714a5.062,5.062,0,0,1-4.049,2.151Z" transform="translate(76.928 108.429)" fill="#d59639"/>
    <path id="Tracé_6" data-name="Tracé 6" d="M65.7,93.808A5.062,5.062,0,0,1,62.79,92.9L51.4,84.9A5.062,5.062,0,1,1,57.1,76.623L68.611,84.6A5.062,5.062,0,0,1,65.7,93.808Z" transform="translate(74.51 103.097)" fill="#d59639"/>
    <path id="Tracé_7" data-name="Tracé 7" d="M100.7,148.347A83.823,83.823,0,0,1,19.358,44.3a5.07,5.07,0,0,1,9.82,2.531,73.725,73.725,0,0,0,84.3,90.277,5.064,5.064,0,0,1,1.772,9.972,84.326,84.326,0,0,1-14.553,1.265Z" transform="translate(25.844 49.748)" fill="#d59639"/>
    <path id="Tracé_8" data-name="Tracé 8" d="M138.833,119.771a3.67,3.67,0,0,1-.886,0,5.062,5.062,0,0,1-4.075-5.872A73.75,73.75,0,0,0,48.53,28.128a5.062,5.062,0,1,1-1.746-9.972A83.848,83.848,0,0,1,143.818,115.6,5.062,5.062,0,0,1,138.833,119.771Z" transform="translate(65.208 13.609)" fill="#d59639"/>
  </g>
</svg>
