<svg xmlns="http://www.w3.org/2000/svg" width="252.104" height="251.689" viewBox="0 0 252.104 251.689">
  <g id="noun_Pie_Chart_1083840" data-name="noun_Pie Chart_1083840" transform="translate(-68 -17.574)">
    <path id="Tracé_71" data-name="Tracé 71" d="M132.369,135.616V21.653a3.891,3.891,0,0,0-4.7-3.99A126.325,126.325,0,0,0,42.026,217.719a3.929,3.929,0,0,0,2.759,1.564c.128.012.256.019.388.019a3.867,3.867,0,0,0,2.682-1.079l83.314-79.81A3.857,3.857,0,0,0,132.369,135.616Zm-7.762-1.657-78.875,75.56A118.568,118.568,0,0,1,124.607,25.957Z" transform="translate(50.479)" fill="#d59639"/>
    <path id="Tracé_72" data-name="Tracé 72" d="M237.429,53.208a3.886,3.886,0,0,0-2.872-1.273H112.665a3.864,3.864,0,0,0-2.744,1.137L29.482,133.515a3.884,3.884,0,0,0,.194,5.67,126.246,126.246,0,0,0,82.992,31.083A125.733,125.733,0,0,0,238.418,56.185,3.878,3.878,0,0,0,237.429,53.208Zm-124.764,109.3a118.513,118.513,0,0,1-74.706-26.492L114.271,59.7H230.206A117.992,117.992,0,0,1,112.665,162.506Z" transform="translate(81.667 98.995)" fill="#d59639"/>
    <path id="Tracé_73" data-name="Tracé 73" d="M53.417,32.21h50.946a3.881,3.881,0,0,0,0-7.762H53.417a3.881,3.881,0,1,0,0,7.762Z" transform="translate(142.716 19.804)" fill="#d59639"/>
    <path id="Tracé_74" data-name="Tracé 74" d="M53.417,25.337h21.73a3.881,3.881,0,1,0,0-7.762H53.417a3.881,3.881,0,1,0,0,7.762Z" transform="translate(142.716 0.003)" fill="#d59639"/>
    <path id="Tracé_75" data-name="Tracé 75" d="M53.417,39.082H134.29a3.881,3.881,0,0,0,0-7.762H53.417a3.881,3.881,0,1,0,0,7.762Z" transform="translate(142.716 39.603)" fill="#d59639"/>
    <path id="Tracé_76" data-name="Tracé 76" d="M53.417,45.954H155.31a3.881,3.881,0,1,0,0-7.762H53.417a3.881,3.881,0,1,0,0,7.762Z" transform="translate(142.716 59.401)" fill="#d59639"/>
    <path id="Tracé_77" data-name="Tracé 77" d="M53.417,52.825H171.028a3.881,3.881,0,1,0,0-7.762H53.417a3.881,3.881,0,1,0,0,7.762Z" transform="translate(142.716 79.197)" fill="#d59639"/>
  </g>
</svg>
