<svg xmlns="http://www.w3.org/2000/svg" width="253.441" height="300.846" viewBox="0 0 253.441 300.846">
  <g id="data_intelligence" data-name="data intelligence" transform="translate(-29.155 -1.5)">
    <path id="Tracé_44" data-name="Tracé 44" d="M99.994,247.4a41.739,41.739,0,0,1-36.941-22.518C36.906,222.785,16.7,197.9,16.7,167.224v-2.369h0A65.217,65.217,0,0,1,9.89,135.77c0-20.6,9.385-39.49,24.647-49.894a38.979,38.979,0,0,1-1.079-9c0-20.42,15.532-37.031,34.662-37.031h.72a37.031,37.031,0,0,1,72.653,10.045v155.92a41.649,41.649,0,0,1-41.5,41.589ZM68.21,45.7c-15.8,0-28.665,13.913-28.665,31.034a33.643,33.643,0,0,0,1.409,9.6,3,3,0,0,1-1.289,3.418c-14.6,9-23.688,26.6-23.688,46a58.83,58.83,0,0,0,6.507,26.986,3,3,0,0,1,.33,1.529v2.909c0,28.1,18.62,50.974,42.4,51.783a3,3,0,0,1,2.609,1.739,35.592,35.592,0,0,0,67.885-14.992V49.774A31.034,31.034,0,0,0,74.3,43.507a3,3,0,0,1-3.238,2.369,27.224,27.224,0,0,0-2.849-.18Z" transform="translate(19.765 21.85)" fill="#d59639" stroke="#d59639" stroke-width="1"/>
    <path id="Tracé_45" data-name="Tracé 45" d="M63.17,70.108a2.519,2.519,0,0,1-.81,0C27.818,60.753,29.377,25.131,29.377,24.772a3,3,0,1,1,6,.33c0,1.259-1.2,31.154,28.635,39.22a2.939,2.939,0,0,1-.84,5.787Z" transform="translate(58.688 39.836)" fill="#d59639" stroke="#d59639" stroke-width="1"/>
    <path id="Tracé_46" data-name="Tracé 46" d="M70.046,45.829c-19.97,0-28.216-17.661-28.305-17.841A3,3,0,1,1,47.2,25.5a25.727,25.727,0,0,0,27.8,14,3.044,3.044,0,0,1,1.049,6,40.151,40.151,0,0,1-6,.33Z" transform="translate(82.875 43.456)" fill="#d59639" stroke="#d59639" stroke-width="1"/>
    <path id="Tracé_47" data-name="Tracé 47" d="M28.748,58.162H28.6a3,3,0,0,1-2.849-3c.72-14.483,21.289-23,22.159-23.358a3.007,3.007,0,0,1,2.249,5.577c-4.947,2.009-17.991,9.205-18.411,17.991A3,3,0,0,1,28.748,58.162Z" transform="translate(51.46 59.128)" fill="#d59639" stroke="#d59639" stroke-width="1"/>
    <path id="Tracé_48" data-name="Tracé 48" d="M39.506,75.576a20.989,20.989,0,0,1-12.534-4.2A3,3,0,0,1,30.51,66.52a14.782,14.782,0,0,0,11.634,3C56.057,67.33,69.371,49.159,69.49,48.979a4.077,4.077,0,0,1,.72-.72,23.418,23.418,0,0,1,18.71-4.288c12.444,2.729,20.21,15.562,20.539,16.1a3,3,0,0,1-5.007,2.879S97.676,51.8,87.781,49.639a17.391,17.391,0,0,0-13.583,3c-2.309,3-15.712,20.09-30.944,22.518a24.827,24.827,0,0,1-3.748.42Z" transform="translate(51.468 82.974)" fill="#d59639" stroke="#d59639" stroke-width="1"/>
    <path id="Tracé_49" data-name="Tracé 49" d="M23.884,86.253a3,3,0,0,1-1.109-5.787c7.706-3,11.994-6.9,12.474-11.3.93-7.376-8.276-15.922-11.994-18.59a3,3,0,1,1,3.538-4.828c.66.48,15.832,11.784,14.273,24.168-.84,6.717-6.3,11.994-16.162,16.132A3,3,0,0,1,23.884,86.253Z" transform="translate(41.723 86.03)" fill="#d59639" stroke="#d59639" stroke-width="1"/>
    <path id="Tracé_50" data-name="Tracé 50" d="M28.966,137.046a3,3,0,0,1-3-2.729c-1.469-16.282,2.039-29.385,10.4-38.98A47.016,47.016,0,0,1,65.007,80.705,27.166,27.166,0,0,1,83,56.987a3,3,0,1,1,1.979,5.637c-.63.24-14.782,5.487-13.913,20.629A3.022,3.022,0,0,1,68.185,86.4c-.18,0-16.671.84-27.316,12.953-7.2,8.186-10.165,19.73-9,34.3a3,3,0,0,1-2.729,3.268Z" transform="translate(51.243 109.359)" fill="#d59639" stroke="#d59639" stroke-width="1"/>
    <path id="Tracé_51" data-name="Tracé 51" d="M46.571,88.248h-.69c-16.731-3.928-24.348-19.34-24.677-20a3,3,0,1,1,5.4-2.609c0,.18,6.777,13.493,20.659,16.791a3.018,3.018,0,1,1-.69,6Z" transform="translate(41.704 123.645)" fill="#d59639" stroke="#d59639" stroke-width="1"/>
    <path id="Tracé_52" data-name="Tracé 52" d="M43.672,90.949a3,3,0,0,1-2.549-4.588c0-.21,14.213-22.219,36.791-15.5a3,3,0,1,1-1.709,5.757C58.035,71.189,46.7,88.79,46.221,89.54A3,3,0,0,1,43.672,90.949Z" transform="translate(81.274 135.066)" fill="#d59639" stroke="#d59639" stroke-width="1"/>
    <path id="Tracé_53" data-name="Tracé 53" d="M54.808,301.846a3,3,0,0,1-3-3V5a3,3,0,0,1,6,0V298.848A3,3,0,0,1,54.808,301.846Z" transform="translate(103.54 0)" fill="#d59639" stroke="#d59639" stroke-width="1"/>
    <path id="Tracé_54" data-name="Tracé 54" d="M84.783,61.339H54.8a3,3,0,0,1,0-6H83.314l22.339-29.265A3,3,0,0,1,110.42,29.7L87.152,60.169A3,3,0,0,1,84.783,61.339Z" transform="translate(103.52 45.757)" fill="#d59639" stroke="#d59639" stroke-width="1"/>
    <path id="Tracé_55" data-name="Tracé 55" d="M84.4,50.273a16.971,16.971,0,1,1,16.971-16.941A16.971,16.971,0,0,1,84.4,50.273Zm0-27.946a10.974,10.974,0,1,0,7.771,3.225A10.974,10.974,0,0,0,84.4,22.327Z" transform="translate(134.756 28.638)" fill="#d59639" stroke="#d59639" stroke-width="1"/>
    <path id="Tracé_56" data-name="Tracé 56" d="M108.051,103.281a3,3,0,0,1-2.4-1.169L83.314,73H54.8a3,3,0,0,1,0-6H84.783a3,3,0,0,1,2.369,1.169L110.42,98.484a2.981,2.981,0,0,1-2.369,4.8Z" transform="translate(103.52 129.9)" fill="#d59639" stroke="#d59639" stroke-width="1"/>
    <path id="Tracé_57" data-name="Tracé 57" d="M84.4,110.293a16.971,16.971,0,1,1,16.971-17,16.971,16.971,0,0,1-16.971,17Zm0-27.946A10.974,10.974,0,1,0,95.376,93.291,10.974,10.974,0,0,0,84.4,82.347Z" transform="translate(134.756 148.586)" fill="#d59639" stroke="#d59639" stroke-width="1"/>
    <path id="Tracé_58" data-name="Tracé 58" d="M146.462,56.357H54.8a3,3,0,0,1,0-6h91.663a3,3,0,0,1,0,6Z" transform="translate(103.52 96.646)" fill="#d59639" stroke="#d59639" stroke-width="1"/>
    <path id="Tracé_59" data-name="Tracé 59" d="M99.891,80.442a17.451,17.451,0,1,1,17.451-17.451A17.451,17.451,0,0,1,99.891,80.442Zm0-28.905a11.454,11.454,0,1,0,11.454,11.454A11.454,11.454,0,0,0,99.891,51.537Z" transform="translate(164.753 87.013)" fill="#d59639" stroke="#d59639" stroke-width="1"/>
    <path id="Tracé_60" data-name="Tracé 60" d="M99.891,62.8a17.451,17.451,0,1,1,17.451-17.451A17.451,17.451,0,0,1,99.891,62.8Zm0-28.875a11.454,11.454,0,1,0,11.454,11.424A11.454,11.454,0,0,0,99.891,33.927Z" transform="translate(164.753 51.76)" fill="#d59639" stroke="#d59639" stroke-width="1"/>
    <path id="Tracé_61" data-name="Tracé 61" d="M108.031,67.862H54.808a3,3,0,0,1,0-6H106.5l20.839-27.916a3,3,0,0,1,2.4-1.229h17.091a3,3,0,0,1,0,6H131.239L110.43,66.543A3,3,0,0,1,108.031,67.862Z" transform="translate(103.54 61.393)" fill="#d59639" stroke="#d59639" stroke-width="1"/>
    <path id="Tracé_62" data-name="Tracé 62" d="M99.891,98.522a17.451,17.451,0,1,1,17.451-17.451A17.451,17.451,0,0,1,99.891,98.522Zm0-28.905a11.454,11.454,0,1,0,11.454,11.454A11.454,11.454,0,0,0,99.891,69.617Z" transform="translate(164.753 123.145)" fill="#d59639" stroke="#d59639" stroke-width="1"/>
    <path id="Tracé_63" data-name="Tracé 63" d="M146.681,93.9H129.59a3,3,0,0,1-2.249-1.319L106.652,64.7H54.808a3,3,0,0,1,0-6h53.223a3,3,0,0,1,2.4,1.2l20.659,27.916h15.592a3,3,0,0,1,0,6Z" transform="translate(103.54 113.313)" fill="#d59639" stroke="#d59639" stroke-width="1"/>
  </g>
</svg>
