<svg xmlns="http://www.w3.org/2000/svg" width="262.383" height="262.382" viewBox="0 0 262.383 262.382">
  <g id="noun_ux_1849309" transform="translate(-10.638 -3.001)">
    <path id="Tracé_81" data-name="Tracé 81" d="M172.6,166.94a21.1,21.1,0,0,0,2.677-10.3v-62.4a15.62,15.62,0,0,0-15.6-15.6H158.26a15.838,15.838,0,0,0-1.975.124,15.623,15.623,0,0,0-15.045-11.47H138.4a15.483,15.483,0,0,0-4.482.656,15.584,15.584,0,0,0-12.538-6.329h-2.837c-.479,0-.95.021-1.418.064V46.02A17.048,17.048,0,0,0,100.135,29h-.025a17.021,17.021,0,0,0-17.02,17.02V105.2a1.418,1.418,0,0,1-2.209,1.181l-2.73-1.837a55.136,55.136,0,0,0-23.643-8.811l-.468-.06a15.1,15.1,0,0,0-16.746,17.941,15.666,15.666,0,0,0,6.152,9.6l9.244,6.723c10.829,7.872,20.087,20.079,26.072,34.369l.479,1.135a21.251,21.251,0,0,0,3.159,4.946,15.478,15.478,0,0,0-2.854,8.942v4.255a15.62,15.62,0,0,0,15.6,15.6h41.13a7.091,7.091,0,1,0,0-14.183H95.146a1.418,1.418,0,0,1-1.418-1.418v-4.255a1.418,1.418,0,0,1,1.418-1.418h68.078a1.418,1.418,0,0,1,1.418,1.418v4.255A1.418,1.418,0,0,1,163.224,185h-5.673a7.091,7.091,0,1,0,0,14.183h5.673a15.62,15.62,0,0,0,15.6-15.6v-4.255A15.54,15.54,0,0,0,172.6,166.94Zm-74-3.212a7.05,7.05,0,0,1-6.372-3.961l-.394-.94c-6.971-16.651-17.913-30.983-30.809-40.361l-9.24-6.723a1.506,1.506,0,0,1-.592-.929.84.84,0,0,1,.216-.777.932.932,0,0,1,.7-.3c.05,0,.1,0,.149.007l.464.06a40.833,40.833,0,0,1,17.523,6.521l2.712,1.823A15.6,15.6,0,0,0,97.274,105.2V46.024a2.839,2.839,0,0,1,2.837-2.837h0a2.842,2.842,0,0,1,2.833,2.837V84.3a7.091,7.091,0,1,0,14.183,0V77.212a1.418,1.418,0,0,1,1.418-1.418h2.837a1.418,1.418,0,0,1,1.418,1.418V89.976a7.091,7.091,0,1,0,14.183,0V82.885a1.418,1.418,0,0,1,1.418-1.418h2.837a1.42,1.42,0,0,1,1.418,1.418v15.6a7.091,7.091,0,0,0,14.183,0V94.231a1.418,1.418,0,0,1,1.418-1.418h1.418a1.418,1.418,0,0,1,1.418,1.418v62.4a7.1,7.1,0,0,1-7.091,7.091Z" transform="translate(94.196 66.197)" fill="#d59639"/>
    <path id="Tracé_82" data-name="Tracé 82" d="M141.283,96.96V65.048a19.5,19.5,0,1,1,39,0V81a7.091,7.091,0,1,0,14.183,0V65.048a33.684,33.684,0,1,0-67.369,0V96.96a44.322,44.322,0,1,1-88.643,0V27.208l9.169,9.169A7.09,7.09,0,0,0,57.653,26.35L36.382,5.079A7.049,7.049,0,0,0,35.3,4.193c-.177-.121-.372-.2-.56-.3a6.887,6.887,0,0,0-.66-.347,6.685,6.685,0,0,0-.73-.227c-.2-.057-.39-.135-.6-.177a7.19,7.19,0,0,0-2.78,0c-.206.043-.4.117-.6.177a6.627,6.627,0,0,0-.727.227,6.572,6.572,0,0,0-.663.351,6,6,0,0,0-.553.3,7.262,7.262,0,0,0-1.085.886L5.077,26.35A7.09,7.09,0,0,0,15.1,36.378l9.169-9.169V96.96a58.5,58.5,0,0,0,117.009,0Z" transform="translate(7.638 0)" fill="#d59639"/>
  </g>
</svg>
