<svg xmlns="http://www.w3.org/2000/svg" width="491.308" height="346.622" viewBox="0 0 491.308 346.622">
  <g id="digital_architecture" data-name="digital architecture" transform="translate(-4.346 -76.689)">
    <path id="Tracé_64" data-name="Tracé 64" d="M409.2,76.689a5.066,5.066,0,0,1,5.065,5.066V266.568h0a16.2,16.2,0,0,0,3.735.751c10.868,1.133,20.378-3.169,26.038-11.32h0c5.66,3.4,12.226,6.566,16.981,10.19a29.781,29.781,0,0,0,3.167,28.075c6.114,9.055,16.528,12.225,26.715,10.641a68.939,68.939,0,0,1,4.754,19.019c-8.83,3.168-16.528,10.865-17.66,21.733s3.169,20.377,11.32,26.037c-3.4,5.659-6.568,12.225-10.19,16.979a29.782,29.782,0,0,0-28.075,3.169c-8.828,7.018-12.224,16.528-10.641,26.715a68.933,68.933,0,0,1-19.018,4.754c-3.168-8.83-10.866-16.528-21.733-17.66s-20.378,3.169-26.038,11.318c-5.659-3.395-12.224-6.566-16.98-10.187a29.776,29.776,0,0,0-3.169-28.075c-7.017-8.831-16.527-12.227-26.713-10.642A68.863,68.863,0,0,1,322,349.047a27.1,27.1,0,0,0,13.566-10.517H9.411a5.064,5.064,0,0,1-5.064-5.065V81.754A5.065,5.065,0,0,1,9.411,76.69Zm2.337,216.133c-6.4.033-3.672-.174-8.217.33h0a34.3,34.3,0,0,0-5.1.911c-15.478,3.944-25.808,14.751-31.161,29.455a42.831,42.831,0,0,0-1.869,15.012,39.468,39.468,0,0,0,1.212,8.559,43.728,43.728,0,1,0,84.845-21.208c-4.446-17.757-19.214-29.985-36.986-32.763Zm-1.453,21.88,4.18.652h0c8,2.3,13.39,8,15.788,15.881a21.864,21.864,0,0,1-42.422,10.6,11.46,11.46,0,0,1-.481-3.309h0a21,21,0,0,1,1.952-11.395q1.079-1.8,2.156-3.594l.021-.023h0c2.992-4.1,7.327-6.529,12.042-8.126h0l.218-.066c3.62-.713,1.451-.4,6.547-.623ZM20.356,92.029a5.066,5.066,0,0,0-5.065,5.065V318.453a5.065,5.065,0,0,0,5.065,5.065H339.778c.124-9.017-4.5-16.784-11.436-22.242,3.4-5.661,6.568-12.226,10.19-16.98a29.787,29.787,0,0,0,28.075-3.169c8.829-7.017,12.227-16.527,10.641-26.715a68.051,68.051,0,0,1,6.812-2.309c5.007-1.184,2.567-.594,7.324-1.765l4.882-.68c1.557,4,3.734,7.974,7.034,10.815l.021.021V97.094a5.065,5.065,0,0,0-5.065-5.065Z" fill="#d59639"/>
    <path id="Tracé_65" data-name="Tracé 65" d="M239.018,347.523c2.8,0,5.065.966,5.064,3.763v8.808l46.772,19.968c4.359,2.67,3.768,9.383-1.344,9.383H129.1c-5.112,0-5.7-6.713-1.343-9.383l46.771-19.968v-8.808c0-2.8,2.268-3.763,5.065-3.763Z" fill="#d59639"/>
    <path id="Tracé_66" data-name="Tracé 66" d="M156.922,153.2l1.205.313c6.662,2.762,10.335,7.837,10.335,14.6,0,4-5.563,8.726-22.683,21.356-15.254,11.319-8.38,6.286-20.586,15.147,5.945,4.813,12.109,9.348,18.281,13.864q17.6,12.342,23.67,17.122a4.5,4.5,0,0,1,1.512,2.2c1.572,5.044,1.994,6.521,1.994,7.6a4.5,4.5,0,0,1-.295,1.6l-.4,1.044a4.449,4.449,0,0,1-.461.894c-3.633,5.451-6.586,8.272-10.308,8.272-3.053,0-9.858-5.019-29.357-20.565-16.647-13.273-26.187-21.3-29.087-24.538h0a8.821,8.821,0,0,1-2.542-6.136,10.359,10.359,0,0,1,3.963-7.859l51.314-43.868C155.21,153.143,154.119,153.643,156.922,153.2Z" fill="#d59639"/>
    <path id="Tracé_67" data-name="Tracé 67" d="M240.336,109.563c3.466,0,6.363,2.047,8.845,5.557a4.5,4.5,0,0,1,.419,4.469c-2.332,5.186-4.373,10.5-6.407,15.805L206.037,252.519c-11,34.4-19.078,50.391-28.153,50.391-5.111,0-8.279-3.5-8.279-8.678a14.828,14.828,0,0,1,2.313-7.505c2.07-3.513,1.078-1.832,2.976-5.042,9.136-19.479,16.194-39.85,22.753-60.315q9.742-31.843,19.291-63.707c2.207-7.255,4.294-14.555,5.8-21.991a97.423,97.423,0,0,1,2.055-13.647,4.734,4.734,0,0,1,.128-.481,17.4,17.4,0,0,1,6.1-8.432A15.208,15.208,0,0,1,240.336,109.563Z" fill="#d59639"/>
    <path id="Tracé_68" data-name="Tracé 68" d="M260.424,153.169c3.059,0,9.835,5.017,29.265,20.57,16.534,13.236,26.107,21.266,29.105,24.452l0,0a8.532,8.532,0,0,1,2.617,5.953,10.639,10.639,0,0,1-3.969,8.126l-51.513,43.868a4.5,4.5,0,0,1-4.641.731c-6.661-2.762-10.334-7.838-10.334-14.6,0-4.148,5.881-9.222,22.759-21.672q10.371-7.448,20.742-14.892c-5.894-4.874-12.1-9.354-18.314-13.8q-17.6-12.344-23.671-17.122a4.5,4.5,0,0,1-1.511-2.2c-1.572-5.045-1.994-6.522-1.994-7.606a3.782,3.782,0,0,1,.222-1.34,4.473,4.473,0,0,1,.787-2.281C253.751,155.947,256.749,153.169,260.424,153.169Z" fill="#d59639"/>
  </g>
</svg>
