<svg xmlns="http://www.w3.org/2000/svg" width="190.073" height="199.996" viewBox="0 0 190.073 199.996">
  <g id="Digital_Workplace" data-name="Digital Workplace" transform="translate(-35.623 -8.6)">
    <path id="Tracé_9" data-name="Tracé 9" d="M60.573,20.993A87.918,87.918,0,0,1,99.758,41.349a3.267,3.267,0,0,0,2.544,1.018,4.086,4.086,0,0,0,2.8-1.272,3.689,3.689,0,0,0-.254-5.343A98,98,0,0,0,62.1,13.868a3.793,3.793,0,0,0-4.58,2.8A4.072,4.072,0,0,0,60.573,20.993Z" transform="translate(88.788 7.963)" fill="#d59639"/>
    <path id="Tracé_10" data-name="Tracé 10" d="M196.185,69.847A3.876,3.876,0,0,0,189.06,72.9a92,92,0,0,1,6.616,29.262H142.751a254.511,254.511,0,0,0-2.036-28.5,135.561,135.561,0,0,0,27.48-6.87,3.783,3.783,0,1,0-2.544-7.125A137.8,137.8,0,0,1,139.7,66.284c-2.29-14.249-5.852-26.972-10.432-36.386-1.018-1.781-3.308-2.8-5.089-1.781s-2.8,3.308-1.781,5.089c4.071,8.906,7.379,20.61,9.669,34.1-7.633.763-15.521,1.272-23.409,1.272-8.142,0-16.03-.509-23.664-1.272,2.29-13.995,5.6-25.7,9.669-34.351a3.812,3.812,0,0,0-6.87-3.308c-4.58,9.415-8.142,21.883-10.432,36.641C61.582,63.74,48.1,59.414,39.19,53.562A86.737,86.737,0,0,1,89.826,21.247a3.8,3.8,0,1,0-1.781-7.379A93.751,93.751,0,0,0,14,105.978a91.2,91.2,0,0,0,6.107,33.333,3.827,3.827,0,0,0,3.562,2.544,1.907,1.907,0,0,0,1.272-.254,3.769,3.769,0,0,0,2.29-4.835,86.358,86.358,0,0,1-5.6-26.972H58.02a3.817,3.817,0,1,0,0-7.633H21.633A87.063,87.063,0,0,1,34.865,59.669c9.669,6.361,24.427,11.45,41.475,13.995-.509,3.308-.763,6.87-1.018,10.432a3.733,3.733,0,0,0,3.562,4.071h.254A3.867,3.867,0,0,0,82.956,84.6c.254-3.308.509-6.616,1.018-9.923a194.8,194.8,0,0,0,24.681,1.527,194.8,194.8,0,0,0,24.682-1.527,233.781,233.781,0,0,1,1.781,27.48H97.968a3.817,3.817,0,0,0,0,7.633h37.149c0,2.8,0,5.6-.254,8.4a3.91,3.91,0,0,0,3.562,4.071h.254A3.867,3.867,0,0,0,142.5,118.7c.254-3.053.254-5.852.254-8.906h52.925a87.063,87.063,0,0,1-13.231,42.493,85.818,85.818,0,0,0-24.681-10.178,3.8,3.8,0,1,0-1.781,7.379,78.355,78.355,0,0,1,22.137,9.16,87.231,87.231,0,0,1-54.452,33.078c5.089-6.616,9.669-17.048,12.977-30.534a3.8,3.8,0,1,0-7.379-1.781c-5.343,20.865-13.231,33.842-20.356,33.842-8.651,0-18.829-17.811-23.664-48.345a229.092,229.092,0,0,1,23.664-1.272h6.87a3.817,3.817,0,0,0,0-7.633h-6.87a194.8,194.8,0,0,0-24.681,1.527c-.509-3.817-.763-7.633-1.018-11.959a3.825,3.825,0,0,0-7.633.509c.254,4.071.763,8.4,1.272,12.468a131.43,131.43,0,0,0-22.391,5.343,3.679,3.679,0,0,0-2.29,4.835,3.827,3.827,0,0,0,3.562,2.544A2.294,2.294,0,0,0,57,151.016a151.229,151.229,0,0,1,21.119-5.089c3.053,18.829,8.4,35.877,16.03,45.8a86.488,86.488,0,0,1-42.493-20.61,3.783,3.783,0,1,0-5.089,5.6,94.621,94.621,0,0,0,157.5-70.737A112.336,112.336,0,0,0,196.185,69.847Z" transform="translate(21.623 7.963)" fill="#d59639"/>
    <path id="Tracé_11" data-name="Tracé 11" d="M88.886,51.372A13.486,13.486,0,1,0,75.4,37.886,13.575,13.575,0,0,0,88.886,51.372Zm0-19.338a5.852,5.852,0,1,1-5.852,5.852A5.758,5.758,0,0,1,88.886,32.033Z" transform="translate(116.454 24.403)" fill="#d59639"/>
    <path id="Tracé_12" data-name="Tracé 12" d="M60.972,58.186A13.486,13.486,0,1,0,47.486,71.672,13.575,13.575,0,0,0,60.972,58.186Zm-19.338,0a5.852,5.852,0,1,1,5.852,5.852A5.758,5.758,0,0,1,41.633,58.186Z" transform="translate(52.512 55.756)" fill="#d59639"/>
    <path id="Tracé_13" data-name="Tracé 13" d="M59.386,35.572A13.486,13.486,0,1,0,45.9,22.086,13.575,13.575,0,0,0,59.386,35.572Zm0-19.338a5.852,5.852,0,1,1-5.852,5.852A5.758,5.758,0,0,1,59.386,16.233Z" transform="translate(70.892 0)" fill="#d59639"/>
    <path id="Tracé_14" data-name="Tracé 14" d="M83.772,71.386A13.486,13.486,0,1,0,70.286,84.872,13.575,13.575,0,0,0,83.772,71.386Zm-19.338,0a5.852,5.852,0,1,1,5.852,5.852A5.758,5.758,0,0,1,64.433,71.386Z" transform="translate(87.727 76.143)" fill="#d59639"/>
    <path id="Tracé_15" data-name="Tracé 15" d="M44.072,78.086A13.486,13.486,0,1,0,30.586,91.572,13.575,13.575,0,0,0,44.072,78.086ZM30.586,83.938a5.852,5.852,0,1,1,5.852-5.852A5.758,5.758,0,0,1,30.586,83.938Z" transform="translate(26.411 86.491)" fill="#d59639"/>
  </g>
</svg>
