<svg xmlns="http://www.w3.org/2000/svg" width="212.766" height="204.531" viewBox="0 0 212.766 204.531">
  <g id="digital_factory" data-name="digital factory" transform="translate(-19.642 -3)">
    <path id="Tracé_69" data-name="Tracé 69" d="M210.976,163.628l4.248,39.331a4.012,4.012,0,0,1-4.248,4.562H53.651a3.776,3.776,0,0,1-2.91-1.337,4.09,4.09,0,0,1-1.023-2.989l4.956-42.871a4.09,4.09,0,0,1,1.416-2.675l47.2-37.679a4.09,4.09,0,0,1,4.012-.551,3.776,3.776,0,0,1,2.36,3.225l2.36,23.6,3.3-2.281a3.933,3.933,0,1,1,4.484,6.45l-8.889,6.057a3.776,3.776,0,0,1-3.854,0,4.012,4.012,0,0,1-2.281-3.146l-2.2-23.6L62.3,163.156l-3.933,36.5h148.2l-3.461-35.162a3.933,3.933,0,0,1,3.54-4.326,3.854,3.854,0,0,1,4.326,3.461ZM66.552,80.246a3.933,3.933,0,0,0-3.54,4.326l5.428,48.456a3.933,3.933,0,0,0,3.854,3.461h.472a3.933,3.933,0,0,0,3.461-4.405L70.878,83.707A3.933,3.933,0,0,0,66.552,80.246Zm-27.3,119.409h-28.4l6.686-60.491H56.876a3.933,3.933,0,1,0,0-7.866H18.411l4.405-39.331H53.651a4.012,4.012,0,0,0,3.933-3.933A3.933,3.933,0,0,0,53.651,84.1H23.681l2.439-21.632a4.012,4.012,0,0,0-3.461-4.405,3.933,3.933,0,0,0-4.405,3.461l-7.866,72.212a4.562,4.562,0,0,0,0,1.495,1.1,1.1,0,0,0,0,.472L2.521,203.117a3.854,3.854,0,0,0,1.023,3.068,3.776,3.776,0,0,0,2.911,1.337h32.8a3.933,3.933,0,1,0,0-7.866Zm45.073-29.026a3.933,3.933,0,1,0,0,7.866h7.158a3.933,3.933,0,1,0,0-7.866Zm54.356,7.866a3.933,3.933,0,1,0,0-7.866h-7.158a3.933,3.933,0,1,0,0,7.866Zm47.2,0a3.933,3.933,0,0,0,0-7.866h-7.158a3.933,3.933,0,0,0,0,7.866Zm.865-62.93a16.167,16.167,0,1,1,0-.551Zm-7.866,0a9.327,9.327,0,1,1,0-.551Zm36.027-7.866v14.867a3.933,3.933,0,0,1-3.933,3.933H206.02a35.48,35.48,0,0,1-2.281,5.664l3.461,3.461a3.933,3.933,0,0,1,0,5.585l-10.7,10.7a4.012,4.012,0,0,1-5.585,0l-3.54-3.54a35.8,35.8,0,0,1-5.664,2.36v4.956a3.933,3.933,0,0,1-3.933,3.933H162.756a4.012,4.012,0,0,1-3.933-3.933v-4.956a38.309,38.309,0,0,1-5.585-2.36l-3.54,3.54a3.933,3.933,0,0,1-5.506,0l-10.7-10.7a3.894,3.894,0,0,1,0-5.585l3.461-3.461a35.792,35.792,0,0,1-2.36-5.664h-4.877a3.933,3.933,0,0,1-3.933-3.933v-15.1a3.933,3.933,0,0,1,3.933-3.933h4.877a35.793,35.793,0,0,1,2.36-5.664l-3.461-3.461a3.933,3.933,0,0,1,0-5.585l10.7-10.7a4.012,4.012,0,0,1,5.506,0l3.54,3.54a38.308,38.308,0,0,1,5.585-2.36V74.347a4.012,4.012,0,0,1,3.933-3.933h15.1a3.933,3.933,0,0,1,3.933,3.933V79.3a35.79,35.79,0,0,1,5.585,2.36l3.461-3.54a4.012,4.012,0,0,1,5.585,0l10.7,10.7a4.012,4.012,0,0,1,0,5.585l-3.461,3.461a35.478,35.478,0,0,1,2.281,5.664h5.034a3.933,3.933,0,0,1,3.933,3.933Zm-7.866,3.933h-3.933a3.854,3.854,0,0,1-3.776-3.068,32.488,32.488,0,0,0-4.09-9.282,3.854,3.854,0,0,1,.551-4.8l2.832-2.832-5.113-5.192-2.832,2.832a3.854,3.854,0,0,1-4.877.551,29.263,29.263,0,0,0-9.046-3.7,4.012,4.012,0,0,1-3.068-3.854V78.28h-7.237v4.012a3.933,3.933,0,0,1-3.068,3.854,28.869,28.869,0,0,0-8.967,3.7,3.854,3.854,0,0,1-4.877-.551l-2.832-2.832L141.6,91.652l2.832,2.832a3.933,3.933,0,0,1,.551,4.8,30.285,30.285,0,0,0-3.776,9.046,3.854,3.854,0,0,1-3.854,3.068h-3.933v7.237h3.933A3.854,3.854,0,0,1,141.2,121.7a28.4,28.4,0,0,0,3.776,9.046,4.09,4.09,0,0,1-.551,4.877l-2.832,2.753,5.113,5.192,2.832-2.832a3.854,3.854,0,0,1,4.877-.551,28.869,28.869,0,0,0,8.967,3.7,3.933,3.933,0,0,1,3.068,3.854v4.012h7.237v-4.012a4.012,4.012,0,0,1,3.068-3.854,29.262,29.262,0,0,0,9.046-3.7,3.854,3.854,0,0,1,4.877.551l2.832,2.832,5.113-5.192-2.832-2.753a3.933,3.933,0,0,1-.551-4.877,32.488,32.488,0,0,0,3.776-9.046,3.854,3.854,0,0,1,4.09-3.068h4.012ZM33.986,61.053a14.435,14.435,0,1,0,0-.236Zm7.866,0a6.569,6.569,0,1,0,0-.236Zm6.686-27.3a27.374,27.374,0,0,1,27.3,27.3,3.933,3.933,0,0,0,7.866,0,35.162,35.162,0,0,0-35.162-35.4,3.933,3.933,0,1,0,0,7.866Zm0-22.891A49.793,49.793,0,0,1,98.253,60.581a3.933,3.933,0,1,0,7.866,0A57.581,57.581,0,0,0,48.538,3a3.933,3.933,0,1,0,0,7.866Z" transform="translate(17.145 0)" fill="#d59639"/>
  </g>
</svg>
