<svg xmlns="http://www.w3.org/2000/svg" width="1176.036" height="804.642" viewBox="0 0 1176.036 804.642"><defs><style>.a{fill:#e78700;}.b{fill:#7d7f82;}.c{fill:#e99b17;}</style></defs><g transform="translate(-490.071 -861.969)"><g transform="translate(490.071 1225.128)"><circle class="a" cx="39.161" cy="39.161" r="39.161" transform="translate(0 0)"></circle><circle class="b" cx="39.161" cy="39.161" r="39.161" transform="translate(183.663 0)"></circle><circle class="b" cx="39.161" cy="39.161" r="39.161" transform="translate(366.17 0)"></circle><circle class="a" cx="39.161" cy="39.161" r="39.161" transform="translate(366.17 188.281)"></circle><circle class="a" cx="39.161" cy="39.161" r="39.161" transform="translate(366.17 363.16)"></circle><circle class="a" cx="39.161" cy="39.161" r="39.161" transform="translate(183.633 363.16)"></circle><circle class="a" cx="39.161" cy="39.161" r="39.161" transform="translate(183.633 179.984)"></circle><circle class="b" cx="39.161" cy="39.161" r="39.161" transform="translate(0.381 179.984)"></circle><g transform="translate(33.155 35.847)"><path class="a" d="M494.74,300.308V416.762c0,8.222,12.781,8.237,12.781,0V300.308c0-8.222-12.781-8.237-12.781,0Z" transform="translate(-494.74 -294.136)"></path></g><g transform="translate(216.048 215.836)"><path class="a" d="M520.5,325.657V442.1c0,8.222,12.781,8.237,12.781,0V325.657c0-8.222-12.781-8.236-12.781,0Z" transform="translate(-520.498 -319.485)"></path></g><g transform="translate(398.941 102.863)"><path class="a" d="M546.256,309.751V426.2c0,8.222,12.781,8.237,12.781,0V309.751c0-8.229-12.781-8.244-12.781,0Z" transform="translate(-546.256 -303.574)"></path></g><g transform="translate(280.62 38.682)"><path class="b" d="M535.769,307.316H652.217c8.222,0,8.236-12.781,0-12.781H535.769c-8.229,0-8.243,12.781,0,12.781Z" transform="translate(-529.592 -294.535)"></path></g><g transform="translate(218.354 395.934)"><path class="a" d="M526.995,357.63H643.449c8.222,0,8.236-12.781,0-12.781H526.995c-8.223,0-8.237,12.781,0,12.781Z" transform="translate(-520.823 -344.849)"></path></g></g><g transform="translate(672.752 861.969)"><circle class="c" cx="39.161" cy="39.161" r="39.161"></circle><circle class="b" cx="39.161" cy="39.161" r="39.161" transform="translate(183.663)"></circle><circle class="b" cx="39.161" cy="39.161" r="39.161" transform="translate(366.17)"></circle><circle class="c" cx="39.161" cy="39.161" r="39.161" transform="translate(366.17 188.281)"></circle><circle class="a" cx="39.161" cy="39.161" r="39.161" transform="translate(366.17 363.16)"></circle><circle class="a" cx="39.161" cy="39.161" r="39.161" transform="translate(183.633 363.16)"></circle><circle class="c" cx="39.161" cy="39.161" r="39.161" transform="translate(183.633 179.984)"></circle><circle class="b" cx="39.161" cy="39.161" r="39.161" transform="translate(0.381 179.984)"></circle><g transform="translate(33.154 35.848)"><path class="c" d="M520.468,249.162V365.616c0,8.222,12.781,8.237,12.781,0V249.162c0-8.222-12.781-8.236-12.781,0Z" transform="translate(-520.468 -242.99)"></path></g><g transform="translate(216.047 215.834)"><path class="c" d="M546.226,274.513V390.96c0,8.222,12.781,8.237,12.781,0V274.513c0-8.229-12.781-8.236-12.781,0Z" transform="translate(-546.226 -268.338)"></path></g><g transform="translate(398.941 102.864)"><path class="c" d="M571.984,258.605V375.053c0,8.222,12.781,8.237,12.781,0V258.605c0-8.229-12.781-8.244-12.781,0Z" transform="translate(-571.984 -252.428)"></path></g><g transform="translate(280.621 38.683)"><path class="b" d="M561.5,256.17H677.943c8.222,0,8.236-12.781,0-12.781H561.5c-8.23,0-8.237,12.781,0,12.781Z" transform="translate(-555.32 -243.389)"></path></g><g transform="translate(218.353 395.927)"><path class="a" d="M552.723,306.483H669.177c8.223,0,8.237-12.781,0-12.781H552.723c-8.222,0-8.237,12.781,0,12.781Z" transform="translate(-546.551 -293.702)"></path></g></g><g transform="translate(1038.933 1225.128)"><circle class="a" cx="39.161" cy="39.161" r="39.161" transform="translate(0 0)"></circle><circle class="b" cx="39.161" cy="39.161" r="39.161" transform="translate(183.663 0)"></circle><circle class="b" cx="39.161" cy="39.161" r="39.161" transform="translate(366.17 0)"></circle><circle class="c" cx="39.161" cy="39.161" r="39.161" transform="translate(366.17 188.281)"></circle><circle class="c" cx="39.161" cy="39.161" r="39.161" transform="translate(366.17 363.16)"></circle><circle class="a" cx="39.161" cy="39.161" r="39.161" transform="translate(183.633 363.16)"></circle><circle class="c" cx="39.161" cy="39.161" r="39.161" transform="translate(183.633 179.984)"></circle><circle class="b" cx="39.161" cy="39.161" r="39.161" transform="translate(0.381 179.984)"></circle><g transform="translate(33.15 35.847)"><path class="a" d="M572.039,300.308V416.762c0,8.222,12.781,8.237,12.781,0V300.308c0-8.222-12.781-8.237-12.781,0Z" transform="translate(-572.039 -294.136)"></path></g><g transform="translate(216.043 215.836)"><path class="a" d="M597.8,325.657V442.1c0,8.222,12.781,8.237,12.781,0V325.657c0-8.222-12.781-8.236-12.781,0Z" transform="translate(-597.797 -319.485)"></path></g><g transform="translate(398.944 102.863)"><path class="c" d="M623.556,309.751V426.2c0,8.222,12.781,8.237,12.781,0V309.751c0-8.229-12.781-8.244-12.781,0Z" transform="translate(-623.556 -303.574)"></path></g><g transform="translate(280.621 38.682)"><path class="b" d="M613.064,307.316H729.511c8.229,0,8.243-12.781,0-12.781H613.064c-8.222,0-8.236,12.781,0,12.781Z" transform="translate(-606.892 -294.535)"></path></g><g transform="translate(218.356 395.934)"><path class="c" d="M604.295,357.63H720.742c8.222,0,8.236-12.781,0-12.781H604.295c-8.222,0-8.237,12.781,0,12.781Z" transform="translate(-598.123 -344.849)"></path></g></g><g transform="translate(1221.614 861.969)"><circle class="c" cx="39.161" cy="39.161" r="39.161"></circle><circle class="b" cx="39.161" cy="39.161" r="39.161" transform="translate(183.663)"></circle><circle class="b" cx="39.161" cy="39.161" r="39.161" transform="translate(366.17)"></circle><circle class="c" cx="39.161" cy="39.161" r="39.161" transform="translate(366.17 188.281)"></circle><circle class="c" cx="39.161" cy="39.161" r="39.161" transform="translate(366.17 363.16)"></circle><circle class="c" cx="39.161" cy="39.161" r="39.161" transform="translate(183.633 363.16)"></circle><circle class="c" cx="39.161" cy="39.161" r="39.161" transform="translate(183.633 179.984)"></circle><circle class="b" cx="39.161" cy="39.161" r="39.161" transform="translate(0.381 179.984)"></circle><g transform="translate(33.149 35.848)"><path class="c" d="M597.767,249.162V365.616c0,8.222,12.781,8.237,12.781,0V249.162c0-8.222-12.781-8.236-12.781,0Z" transform="translate(-597.767 -242.99)"></path></g><g transform="translate(216.05 215.834)"><path class="c" d="M623.526,274.513V390.96c0,8.222,12.781,8.237,12.781,0V274.513c0-8.229-12.781-8.236-12.781,0Z" transform="translate(-623.526 -268.338)"></path></g><g transform="translate(398.943 102.864)"><path class="c" d="M649.284,258.605V375.053c0,8.222,12.781,8.237,12.781,0V258.605c0-8.229-12.781-8.244-12.781,0Z" transform="translate(-649.284 -252.428)"></path></g><g transform="translate(280.619 38.683)"><path class="b" d="M638.792,256.17H755.246c8.222,0,8.236-12.781,0-12.781H638.792c-8.222,0-8.237,12.781,0,12.781Z" transform="translate(-632.62 -243.389)"></path></g><g transform="translate(218.356 395.927)"><path class="c" d="M630.023,306.483H746.47c8.229,0,8.237-12.781,0-12.781H630.023c-8.222,0-8.236,12.781,0,12.781Z" transform="translate(-623.851 -293.702)"></path></g></g></g></svg>