<svg xmlns="http://www.w3.org/2000/svg" width="178.912" height="195.199" viewBox="0 0 178.912 195.199">
  <g id="iot" transform="translate(-48.977 -14.494)">
    <path id="Tracé_70" data-name="Tracé 70" d="M179.071,139.815a16.613,16.613,0,0,0-12.817,6.041l-29.165-16.842a32.862,32.862,0,0,0,0-28.32l34.079-19.676a11.708,11.708,0,1,0-2.744-4.822l-34.1,19.688a33.263,33.263,0,0,0-24.535-14.171V48.042a16.64,16.64,0,1,0-5.547,0V81.714A33.263,33.263,0,0,0,79.706,95.885L45.606,76.2a10.948,10.948,0,0,0,.447-2.943,11.128,11.128,0,1,0-3.191,7.765l34.079,19.676a32.862,32.862,0,0,0,0,28.32L47.774,145.854a16.874,16.874,0,1,0,2.764,4.81l29.167-16.84a33.263,33.263,0,0,0,24.535,14.171v39.362a11.094,11.094,0,1,0,5.547,0V147.995a33.264,33.264,0,0,0,24.535-14.171l29.167,16.84a16.629,16.629,0,1,0,15.58-10.849Zm0-72.109a5.547,5.547,0,1,1-4.78,8.312l0-.006,0,0a5.483,5.483,0,0,1-.762-2.757,5.552,5.552,0,0,1,5.547-5.547ZM34.958,78.8a5.547,5.547,0,1,1,5.547-5.547A5.547,5.547,0,0,1,34.958,78.8Zm0,88.749a11.094,11.094,0,1,1,11.094-11.094,11.094,11.094,0,0,1-11.094,11.094Zm60.962-135.9a11.094,11.094,0,1,1,11.094,11.094A11.094,11.094,0,0,1,95.921,31.652Zm16.641,166.405a5.547,5.547,0,1,1-5.547-5.547,5.547,5.547,0,0,1,5.547,5.547Zm-5.547-55.468a27.734,27.734,0,1,1,27.734-27.734A27.734,27.734,0,0,1,107.015,142.589Zm72.056,24.961a11.094,11.094,0,1,1,11.094-11.094A11.094,11.094,0,0,1,179.071,167.549Z" transform="translate(31.656 0)" fill="#d59639" stroke="#d59639" stroke-width="1"/>
  </g>
</svg>
