<svg xmlns="http://www.w3.org/2000/svg" width="230.517" height="175.879" viewBox="0 0 230.517 175.879">
  <g id="Journey_To_Cloud" data-name="Journey To Cloud" transform="translate(-24.254 -18.38)">
    <path id="Tracé_16" data-name="Tracé 16" d="M239.227,119.4a38.007,38.007,0,0,1-37.951,37.951h-12.7a4.177,4.177,0,0,1,0-8.353h12.7a29.6,29.6,0,1,0-5.791-58.472,37.727,37.727,0,0,1-1.225,4.065,4.177,4.177,0,1,1-7.824-2.784,29.346,29.346,0,0,0,1.392-5.151h0A29.626,29.626,0,0,0,158.675,51.6a29.292,29.292,0,0,0-15.509,4.455,52.9,52.9,0,0,1,1.364,5.207,4.177,4.177,0,0,1-8.186,1.671A45.274,45.274,0,1,0,47.746,81.5a37.645,37.645,0,0,1,12.446,2.617A4.18,4.18,0,0,1,57.1,91.888,29.6,29.6,0,1,0,46.131,149h12.7a4.177,4.177,0,0,1,0,8.353H46.075A37.951,37.951,0,0,1,39.309,82.17,53.6,53.6,0,0,1,139.964,48.2a37.589,37.589,0,0,1,18.711-4.956A38.007,38.007,0,0,1,196.626,81.2v.529a37.84,37.84,0,0,1,42.6,37.673ZM155.7,172.3a4.177,4.177,0,0,0-5.847.78,32.828,32.828,0,0,1-57.637-10.469l4.26,3.2a4.177,4.177,0,0,0,4.928-6.655l-12.251-9.328h0l-.418-.251-.306-.167-.39-.139H85.251l-.334.167-.39.195-.306.223-.306.251-.306.334-.167.195-9.328,12.335a4.177,4.177,0,0,0,6.655,5.04L84,163.725a41.153,41.153,0,0,0,72.394,14.451,4.177,4.177,0,0,0-.78-5.847Zm16.957-34.833a4.177,4.177,0,0,0-5.847.807l-3.341,4.344a41.153,41.153,0,0,0-72.394-14.451,4.177,4.177,0,1,0,6.627,5.068,32.828,32.828,0,0,1,57.442,10.5l-4.26-3.2a4.177,4.177,0,1,0-4.928,6.655l12.251,9.355h0a4.148,4.148,0,0,0,1.058.557h.223a3.843,3.843,0,0,0,2.088,0h.195l.64-.223h.251l.5-.334.251-.195.446-.446h0l9.328-12.335a4.177,4.177,0,0,0-.613-6.07Z" transform="translate(15.543)" fill="#d59639"/>
  </g>
</svg>
