<svg xmlns="http://www.w3.org/2000/svg" width="187.357" height="187.345" viewBox="0 0 187.357 187.345">
  <g id="noun_Search_3079346" transform="translate(-15.336 -3.37)">
    <path id="Tracé_78" data-name="Tracé 78" d="M155.953,133.5a4.606,4.606,0,0,0-6.4,0l-1.589,1.589-6.811-6.811c23.929-30.331,21.432-74.875-6.039-102.345A77.185,77.185,0,1,0,25.956,135.093,77.21,77.21,0,0,0,128.3,141.087l6.811,6.811-1.589,1.589a4.6,4.6,0,0,0,0,6.448l32.1,32.1a8.99,8.99,0,0,0,12.8,0l9.626-9.626a9.031,9.031,0,0,0,2.679-6.448,8.927,8.927,0,0,0-2.679-6.4Zm-27.289-4.813A68.184,68.184,0,1,1,148.6,80.515,68.156,68.156,0,0,1,128.664,128.691Zm43.317,52.943L143.1,152.756l9.626-9.626,28.878,28.878Zm9.626-9.626h0L183.2,173.6Z" transform="translate(11.958 0)" fill="#d59639"/>
    <path id="Tracé_79" data-name="Tracé 79" d="M108.116,24.624A59.028,59.028,0,0,0,7.36,66.352a58.987,58.987,0,0,0,59.028,58.982A59.013,59.013,0,0,0,108.116,24.624Zm-6.4,77.054a49.987,49.987,0,1,1,14.621-35.326A49.7,49.7,0,0,1,101.714,101.678Z" transform="translate(26.059 14.162)" fill="#d59639"/>
    <path id="Tracé_80" data-name="Tracé 80" d="M96.932,51.527H90.665l-7.81-15.665a4.536,4.536,0,0,0-8.309.454L67.009,56.385,60.561,14.521a4.5,4.5,0,0,0-4.268-3.86,4.345,4.345,0,0,0-4.677,3.678L42.535,62.833,37.858,37.088a4.567,4.567,0,0,0-8.128-1.952L17.471,51.481H15.2a4.541,4.541,0,1,0,0,9.081l4.858-.045a6.513,6.513,0,0,0,1-.182c.227-.091.454-.136.772-.272l.636-.409c.182-.136.454-.363.409-.363l7.9-10.353,7.22,39.73a4.566,4.566,0,0,0,4.45,3.723,4.487,4.487,0,0,0,4.45-3.723l8.718-46.5,5.04,32.738a4.534,4.534,0,0,0,4.041,3.814,4.467,4.467,0,0,0,4.677-2.906l9.944-26.563,4.4,8.854.409.59a2.359,2.359,0,0,0,.59.681l1.5.908a2.47,2.47,0,0,0,.772.182l9.9.136a4.541,4.541,0,0,0,.045-9.081Z" transform="translate(37.743 25.764)" fill="#d59639"/>
  </g>
</svg>
