<svg id="Stratégie_omnicanale" data-name="Stratégie omnicanale" xmlns="http://www.w3.org/2000/svg" width="233.936" height="233.936" viewBox="0 0 233.936 233.936">
  <g id="Groupe_2" data-name="Groupe 2" transform="translate(101.373)">
    <g id="Groupe_1" data-name="Groupe 1">
      <path id="Tracé_17" data-name="Tracé 17" d="M237.463,0a15.6,15.6,0,1,0,15.6,15.6A15.611,15.611,0,0,0,237.463,0Zm0,23.394a7.8,7.8,0,1,1,7.8-7.8A7.806,7.806,0,0,1,237.463,23.394Z" transform="translate(-221.867)" fill="#d59639"/>
    </g>
  </g>
  <g id="Groupe_4" data-name="Groupe 4" transform="translate(101.373 202.745)">
    <g id="Groupe_3" data-name="Groupe 3">
      <path id="Tracé_18" data-name="Tracé 18" d="M237.463,443.733a15.6,15.6,0,1,0,15.6,15.6A15.611,15.611,0,0,0,237.463,443.733Zm0,23.394a7.8,7.8,0,1,1,7.8-7.8A7.806,7.806,0,0,1,237.463,467.127Z" transform="translate(-221.867 -443.733)" fill="#d59639"/>
    </g>
  </g>
  <g id="Groupe_6" data-name="Groupe 6" transform="translate(202.745 101.373)">
    <g id="Groupe_5" data-name="Groupe 5">
      <path id="Tracé_19" data-name="Tracé 19" d="M459.33,221.867a15.6,15.6,0,1,0,15.6,15.6A15.611,15.611,0,0,0,459.33,221.867Zm0,23.394a7.8,7.8,0,1,1,7.8-7.8A7.806,7.806,0,0,1,459.33,245.261Z" transform="translate(-443.734 -221.867)" fill="#d59639"/>
    </g>
  </g>
  <g id="Groupe_8" data-name="Groupe 8" transform="translate(0 101.373)">
    <g id="Groupe_7" data-name="Groupe 7">
      <path id="Tracé_20" data-name="Tracé 20" d="M15.6,221.867a15.6,15.6,0,1,0,15.6,15.6A15.611,15.611,0,0,0,15.6,221.867Zm0,23.394a7.8,7.8,0,1,1,7.8-7.8A7.806,7.806,0,0,1,15.6,245.261Z" transform="translate(0 -221.867)" fill="#d59639"/>
    </g>
  </g>
  <g id="Groupe_10" data-name="Groupe 10" transform="translate(29.69 29.839)">
    <g id="Groupe_9" data-name="Groupe 9">
      <path id="Tracé_21" data-name="Tracé 21" d="M91.607,69.727a15.965,15.965,0,0,0-22.056,0,15.594,15.594,0,1,0,22.056,0ZM86.09,86.266a7.985,7.985,0,0,1-11.03,0,7.8,7.8,0,1,1,11.03,0Z" transform="translate(-64.981 -65.306)" fill="#d59639"/>
    </g>
  </g>
  <g id="Groupe_12" data-name="Groupe 12" transform="translate(173.054 173.203)">
    <g id="Groupe_11" data-name="Groupe 11">
      <path id="Tracé_22" data-name="Tracé 22" d="M405.378,383.5a15.965,15.965,0,0,0-22.056,0,15.594,15.594,0,1,0,22.056,0Zm-5.517,16.539a7.985,7.985,0,0,1-11.03,0,7.8,7.8,0,1,1,11.03,0Z" transform="translate(-378.752 -379.076)" fill="#d59639"/>
    </g>
  </g>
  <g id="Groupe_14" data-name="Groupe 14" transform="translate(173.054 29.839)">
    <g id="Groupe_13" data-name="Groupe 13">
      <path id="Tracé_23" data-name="Tracé 23" d="M405.378,69.727a15.965,15.965,0,0,0-22.056,0,15.594,15.594,0,1,0,22.056,0Zm-5.517,16.54a7.985,7.985,0,0,1-11.03,0,7.8,7.8,0,1,1,11.03,0Z" transform="translate(-378.752 -65.306)" fill="#d59639"/>
    </g>
  </g>
  <g id="Groupe_16" data-name="Groupe 16" transform="translate(29.69 173.203)">
    <g id="Groupe_15" data-name="Groupe 15">
      <path id="Tracé_24" data-name="Tracé 24" d="M91.607,383.5a15.965,15.965,0,0,0-22.056,0,15.594,15.594,0,1,0,22.056,0ZM86.09,400.037a7.985,7.985,0,0,1-11.03,0,7.8,7.8,0,1,1,11.03,0Z" transform="translate(-64.981 -379.076)" fill="#d59639"/>
    </g>
  </g>
  <g id="Groupe_18" data-name="Groupe 18" transform="translate(23.394 113.069)">
    <g id="Groupe_17" data-name="Groupe 17">
      <path id="Tracé_25" data-name="Tracé 25" d="M62.9,247.467H55.1a3.9,3.9,0,0,0,0,7.8h7.8a3.9,3.9,0,0,0,0-7.8Z" transform="translate(-51.2 -247.467)" fill="#d59639"/>
    </g>
  </g>
  <g id="Groupe_20" data-name="Groupe 20" transform="translate(46.787 113.069)">
    <g id="Groupe_19" data-name="Groupe 19">
      <path id="Tracé_26" data-name="Tracé 26" d="M114.1,247.467h-7.8a3.9,3.9,0,0,0,0,7.8h7.8a3.9,3.9,0,1,0,0-7.8Z" transform="translate(-102.4 -247.467)" fill="#d59639"/>
    </g>
  </g>
  <g id="Groupe_22" data-name="Groupe 22" transform="translate(171.553 113.069)">
    <g id="Groupe_21" data-name="Groupe 21">
      <path id="Tracé_27" data-name="Tracé 27" d="M387.164,247.467h-7.8a3.9,3.9,0,0,0,0,7.8h7.8a3.9,3.9,0,1,0,0-7.8Z" transform="translate(-375.467 -247.467)" fill="#d59639"/>
    </g>
  </g>
  <g id="Groupe_24" data-name="Groupe 24" transform="translate(194.947 113.069)">
    <g id="Groupe_23" data-name="Groupe 23">
      <path id="Tracé_28" data-name="Tracé 28" d="M438.364,247.467h-7.8a3.9,3.9,0,0,0,0,7.8h7.8a3.9,3.9,0,1,0,0-7.8Z" transform="translate(-426.667 -247.467)" fill="#d59639"/>
    </g>
  </g>
  <g id="Groupe_26" data-name="Groupe 26" transform="translate(113.069 194.947)">
    <g id="Groupe_25" data-name="Groupe 25">
      <path id="Tracé_29" data-name="Tracé 29" d="M251.366,426.667a3.9,3.9,0,0,0-3.9,3.9v7.8a3.9,3.9,0,0,0,7.8,0v-7.8A3.9,3.9,0,0,0,251.366,426.667Z" transform="translate(-247.467 -426.667)" fill="#d59639"/>
    </g>
  </g>
  <g id="Groupe_28" data-name="Groupe 28" transform="translate(113.069 171.553)">
    <g id="Groupe_27" data-name="Groupe 27">
      <path id="Tracé_30" data-name="Tracé 30" d="M251.366,375.467a3.9,3.9,0,0,0-3.9,3.9v7.8a3.9,3.9,0,1,0,7.8,0v-7.8A3.9,3.9,0,0,0,251.366,375.467Z" transform="translate(-247.467 -375.467)" fill="#d59639"/>
    </g>
  </g>
  <g id="Groupe_30" data-name="Groupe 30" transform="translate(113.069 46.787)">
    <g id="Groupe_29" data-name="Groupe 29">
      <path id="Tracé_31" data-name="Tracé 31" d="M251.366,102.4a3.9,3.9,0,0,0-3.9,3.9v7.8a3.9,3.9,0,1,0,7.8,0v-7.8A3.9,3.9,0,0,0,251.366,102.4Z" transform="translate(-247.467 -102.4)" fill="#d59639"/>
    </g>
  </g>
  <g id="Groupe_32" data-name="Groupe 32" transform="translate(113.069 23.394)">
    <g id="Groupe_31" data-name="Groupe 31">
      <path id="Tracé_32" data-name="Tracé 32" d="M251.366,51.2a3.9,3.9,0,0,0-3.9,3.9v7.8a3.9,3.9,0,0,0,7.8,0V55.1A3.9,3.9,0,0,0,251.366,51.2Z" transform="translate(-247.467 -51.2)" fill="#d59639"/>
    </g>
  </g>
  <g id="Groupe_34" data-name="Groupe 34" transform="translate(49.659 170.967)">
    <g id="Groupe_33" data-name="Groupe 33">
      <path id="Tracé_33" data-name="Tracé 33" d="M120.856,375.328a3.9,3.9,0,0,0-5.517,0l-5.513,5.513a3.9,3.9,0,0,0,5.517,5.513l5.513-5.513A3.9,3.9,0,0,0,120.856,375.328Z" transform="translate(-108.685 -374.184)" fill="#d59639"/>
    </g>
  </g>
  <g id="Groupe_36" data-name="Groupe 36" transform="translate(64.194 156.428)">
    <g id="Groupe_35" data-name="Groupe 35">
      <path id="Tracé_34" data-name="Tracé 34" d="M152.668,343.507a3.9,3.9,0,0,0-5.517,0l-5.513,5.513a3.9,3.9,0,0,0,5.517,5.513l5.513-5.513A3.9,3.9,0,0,0,152.668,343.507Z" transform="translate(-140.497 -342.363)" fill="#d59639"/>
    </g>
  </g>
  <g id="Groupe_38" data-name="Groupe 38" transform="translate(156.424 64.195)">
    <g id="Groupe_37" data-name="Groupe 37">
      <path id="Tracé_35" data-name="Tracé 35" d="M354.528,141.643a3.894,3.894,0,0,0-5.513,0l-5.517,5.513a3.9,3.9,0,1,0,5.513,5.513l5.517-5.513A3.894,3.894,0,0,0,354.528,141.643Z" transform="translate(-342.354 -140.499)" fill="#d59639"/>
    </g>
  </g>
  <g id="Groupe_40" data-name="Groupe 40" transform="translate(170.963 49.656)">
    <g id="Groupe_39" data-name="Groupe 39">
      <path id="Tracé_36" data-name="Tracé 36" d="M386.349,109.822a3.894,3.894,0,0,0-5.513,0l-5.517,5.513a3.9,3.9,0,1,0,5.513,5.513l5.517-5.513A3.894,3.894,0,0,0,386.349,109.822Z" transform="translate(-374.175 -108.678)" fill="#d59639"/>
    </g>
  </g>
  <g id="Groupe_42" data-name="Groupe 42" transform="translate(170.96 170.967)">
    <g id="Groupe_41" data-name="Groupe 41">
      <path id="Tracé_37" data-name="Tracé 37" d="M386.341,380.841l-5.517-5.513a3.9,3.9,0,0,0-5.513,5.513l5.517,5.513a3.9,3.9,0,0,0,5.513-5.513Z" transform="translate(-374.168 -374.184)" fill="#d59639"/>
    </g>
  </g>
  <g id="Groupe_44" data-name="Groupe 44" transform="translate(156.424 156.428)">
    <g id="Groupe_43" data-name="Groupe 43">
      <path id="Tracé_38" data-name="Tracé 38" d="M354.528,349.02l-5.517-5.513a3.9,3.9,0,0,0-5.513,5.513l5.517,5.513a3.9,3.9,0,1,0,5.513-5.513Z" transform="translate(-342.355 -342.363)" fill="#d59639"/>
    </g>
  </g>
  <g id="Groupe_46" data-name="Groupe 46" transform="translate(64.195 64.195)">
    <g id="Groupe_45" data-name="Groupe 45">
      <path id="Tracé_39" data-name="Tracé 39" d="M152.672,147.156l-5.513-5.513a3.9,3.9,0,0,0-5.517,5.513l5.513,5.513a3.9,3.9,0,0,0,5.517-5.513Z" transform="translate(-140.498 -140.499)" fill="#d59639"/>
    </g>
  </g>
  <g id="Groupe_48" data-name="Groupe 48" transform="translate(49.66 49.656)">
    <g id="Groupe_47" data-name="Groupe 47">
      <path id="Tracé_40" data-name="Tracé 40" d="M120.86,115.335l-5.513-5.513a3.9,3.9,0,0,0-5.517,5.513l5.513,5.513a3.9,3.9,0,1,0,5.517-5.513Z" transform="translate(-108.686 -108.678)" fill="#d59639"/>
    </g>
  </g>
  <g id="Groupe_50" data-name="Groupe 50" transform="translate(54.585 54.585)">
    <g id="Groupe_49" data-name="Groupe 49">
      <path id="Tracé_41" data-name="Tracé 41" d="M181.85,119.467a62.383,62.383,0,1,0,62.383,62.383A62.456,62.456,0,0,0,181.85,119.467Zm0,116.968a54.585,54.585,0,1,1,54.585-54.585A54.645,54.645,0,0,1,181.85,236.435Z" transform="translate(-119.467 -119.467)" fill="#d59639"/>
    </g>
  </g>
  <g id="Groupe_52" data-name="Groupe 52" transform="translate(93.575 74.08)">
    <g id="Groupe_51" data-name="Groupe 51">
      <path id="Tracé_42" data-name="Tracé 42" d="M228.194,162.133a23.394,23.394,0,1,0,23.394,23.394A23.42,23.42,0,0,0,228.194,162.133Zm0,38.99a15.6,15.6,0,1,1,15.6-15.6A15.611,15.611,0,0,1,228.194,201.123Z" transform="translate(-204.8 -162.133)" fill="#d59639"/>
    </g>
  </g>
  <g id="Groupe_54" data-name="Groupe 54" transform="translate(81.878 132.568)">
    <g id="Groupe_53" data-name="Groupe 53">
      <path id="Tracé_43" data-name="Tracé 43" d="M232.389,290.142H196.2a17.014,17.014,0,0,0-17,16.991v16.82a3.892,3.892,0,0,0,1.813,3.295,62.054,62.054,0,0,0,66.555,0,3.892,3.892,0,0,0,1.813-3.295v-16.82A17.011,17.011,0,0,0,232.389,290.142Zm9.193,31.612a55.041,55.041,0,0,1-54.585,0V307.13a9.206,9.206,0,0,1,9.2-9.194h36.194a9.2,9.2,0,0,1,9.194,9.194Z" transform="translate(-179.2 -290.142)" fill="#d59639"/>
    </g>
  </g>
</svg>
