
<svg xmlns="http://www.w3.org/2000/svg" width="130" height="130" viewBox="0 0 130 130"><defs><style>.a{fill:#e99b17;}.b{fill:#151514;}.c{fill:#fff;}</style></defs><g transform="translate(-97)"><rect class="a" width="130" height="130" transform="translate(97)"/><g transform="translate(74.363 19.431)"><g transform="translate(49.174 25.965)"><path class="b" d="M51.927,90.882V58.9c0-.468.14-.608.561-.608H64.319c5.1,0,10.3.913,10.3,8.674,0,3.975-1.947,6.243-4.846,7.365v.093c3.507.889,5.973,3.318,5.973,8.23,0,6.972-4.769,8.838-10.777,8.838H52.488C52.067,91.489,51.927,91.349,51.927,90.882ZM64.365,73.627c3.928,0,8.076-.927,8.076-6.706,0-5.893-4.242-6.621-8.216-6.621H54.078V73.627Zm.515,15.852c5.792,0,8.636-1.9,8.636-7.014,0-5.032-2.992-6.968-8.45-6.968H54.078V89.479Z" transform="translate(-51.927 -58.289)"/><path class="b" d="M127.738,90.928V60.3h-10.2c-.421,0-.561-.14-.561-.561V58.9c0-.468.14-.608.561-.608h22.542c.421,0,.561.141.561.608v.842c0,.421-.141.561-.561.561h-10.2V90.928c0,.421-.14.561-.561.561H128.3C127.878,91.489,127.738,91.349,127.738,90.928Z" transform="translate(-91.071 -58.289)"/><path class="b" d="M187.523,90.928V58.8c0-.421.187-.515.514-.515h1.122c.327,0,.515.094.515.515V90.928c0,.468-.234.561-.515.561h-1.122C187.71,91.489,187.523,91.4,187.523,90.928Z" transform="translate(-133.517 -58.289)"/></g><g transform="translate(47.351 61.935)"><path class="c" d="M52.141,160.857a4.1,4.1,0,0,1,3.371,1.181,4.956,4.956,0,0,1,.942,3.178v5.994a1.549,1.549,0,0,1-.17.84,1.459,1.459,0,0,1-.647.454,8.863,8.863,0,0,1-3.5.59,8.854,8.854,0,0,1-2.951-.386,2.539,2.539,0,0,1-1.442-1.124,4.037,4.037,0,0,1-.4-1.919,3.5,3.5,0,0,1,.488-1.975,2.772,2.772,0,0,1,1.544-1.056,9.91,9.91,0,0,1,2.849-.329,21.823,21.823,0,0,1,3.587.3v-1.408a4.435,4.435,0,0,0-.783-2.781,3.516,3.516,0,0,0-2.917-1.01,3.973,3.973,0,0,0-3.837,2.111.228.228,0,0,1-.1.091.13.13,0,0,1-.125-.023l-.25-.068c-.121-.045-.152-.128-.091-.25A4.55,4.55,0,0,1,52.141,160.857Zm.046,5.971a6.036,6.036,0,0,0-3.247.647,2.454,2.454,0,0,0-.953,2.191,3.306,3.306,0,0,0,.341,1.612,2.2,2.2,0,0,0,1.248.942,7.826,7.826,0,0,0,2.565.329,7.781,7.781,0,0,0,3.11-.522,1.072,1.072,0,0,0,.488-.318,1.185,1.185,0,0,0,.1-.59v-4A23.321,23.321,0,0,0,52.187,166.828Z" transform="translate(-47.351 -155.976)"/><path class="c" d="M78.1,154.607a4.242,4.242,0,0,1,3.235-1.124,9.514,9.514,0,0,1,2.463.3,11.23,11.23,0,0,1,1.828.636v-5.653q0-.159.182-.159h.272q.182,0,.182.159v15.074a1.311,1.311,0,0,1-.182.783,1.783,1.783,0,0,1-.726.466,9.61,9.61,0,0,1-3.632.636q-4.677,0-4.677-4.5v-3.383A4.553,4.553,0,0,1,78.1,154.607Zm5.778-.238a8.857,8.857,0,0,0-2.475-.318q-3.746,0-3.746,3.814V161.2a3.966,3.966,0,0,0,1.01,2.962,4.242,4.242,0,0,0,3.076.988,8.659,8.659,0,0,0,3.246-.59,1.416,1.416,0,0,0,.533-.318.989.989,0,0,0,.1-.545v-8.672A10.022,10.022,0,0,0,83.88,154.368Z" transform="translate(-65.22 -148.602)"/><path class="c" d="M115.6,161.689c.023.023.012.072-.034.147l-4.836,11.351a.3.3,0,0,1-.1.125.343.343,0,0,1-.17.033h-.182a.278.278,0,0,1-.159-.033.345.345,0,0,1-.091-.125l-4.858-11.328a.247.247,0,0,1-.023-.113c0-.061.053-.091.159-.091h.227a.327.327,0,0,1,.182.034.563.563,0,0,1,.114.147l3.9,9.149.636,1.589h.023q.113-.227.341-.863l.272-.7,3.905-9.172a.293.293,0,0,1,.1-.147.394.394,0,0,1,.193-.034h.227A.266.266,0,0,1,115.6,161.689Z" transform="translate(-82.128 -156.456)"/><path class="c" d="M138.006,151.075a.483.483,0,0,1,.08.329v.114a.34.34,0,0,1-.409.409h-.114a.34.34,0,0,1-.409-.409V151.4a.438.438,0,0,1,.091-.329.489.489,0,0,1,.318-.079h.114A.484.484,0,0,1,138.006,151.075Zm-.079,4.325v11.283a.141.141,0,0,1-.159.159h-.3a.14.14,0,0,1-.159-.159V155.4a.14.14,0,0,1,.159-.159h.3A.141.141,0,0,1,137.927,155.4Z" transform="translate(-101.388 -150.043)"/><path class="c" d="M146.941,161.685a5.185,5.185,0,0,1,3.178-.828,5.723,5.723,0,0,1,2.929.636,3.63,3.63,0,0,1,1.544,1.839c.045.121.023.2-.068.25l-.227.113a.161.161,0,0,1-.136.023.244.244,0,0,1-.091-.114,3.233,3.233,0,0,0-1.328-1.635,5.056,5.056,0,0,0-2.6-.545,4.694,4.694,0,0,0-2.736.658,2.248,2.248,0,0,0-.919,1.952,2.175,2.175,0,0,0,1.793,2.395,19.518,19.518,0,0,0,2.248.307,11.04,11.04,0,0,1,2.236.386,3.025,3.025,0,0,1,1.453.919,2.72,2.72,0,0,1,.556,1.828,2.833,2.833,0,0,1-1.09,2.384,5.443,5.443,0,0,1-3.337.84,6.134,6.134,0,0,1-3.031-.67,3.99,3.99,0,0,1-1.759-2.213l-.023-.091a.161.161,0,0,1,.114-.159l.25-.068c.091-.045.159-.015.2.091a3.522,3.522,0,0,0,1.544,1.952,5.4,5.4,0,0,0,2.679.59,4.965,4.965,0,0,0,2.895-.681,2.263,2.263,0,0,0,.942-1.952,2.225,2.225,0,0,0-.466-1.509,2.481,2.481,0,0,0-1.248-.749,11.874,11.874,0,0,0-2.009-.329,19.285,19.285,0,0,1-2.486-.375,2.861,2.861,0,0,1-1.5-.885,2.923,2.923,0,0,1-.6-2.009A2.78,2.78,0,0,1,146.941,161.685Z" transform="translate(-106.429 -155.976)"/><path class="c" d="M175.805,161.9a6.356,6.356,0,0,1,6.981,0,3.417,3.417,0,0,1,1.306,2.815v4.518a3.416,3.416,0,0,1-1.306,2.815,6.355,6.355,0,0,1-6.981,0,3.4,3.4,0,0,1-1.316-2.815v-4.518A3.4,3.4,0,0,1,175.805,161.9Zm6.5.409a5.61,5.61,0,0,0-6.05,0,2.845,2.845,0,0,0-1.158,2.384v4.563a2.845,2.845,0,0,0,1.158,2.384,5.61,5.61,0,0,0,6.05,0,2.856,2.856,0,0,0,1.146-2.384v-4.563A2.856,2.856,0,0,0,182.31,162.31Z" transform="translate(-123.852 -155.976)"/><path class="c" d="M211.378,160.857a.13.13,0,0,1,.159.159v.227a.219.219,0,0,1-.034.147.174.174,0,0,1-.125.034h-.7a9.555,9.555,0,0,0-3.678.658.952.952,0,0,0-.443.341,1.081,1.081,0,0,0-.1.522v9.671a.14.14,0,0,1-.159.159H206a.141.141,0,0,1-.159-.159v-9.807a1.339,1.339,0,0,1,.17-.749,1.6,1.6,0,0,1,.67-.477,10.622,10.622,0,0,1,4.018-.726Z" transform="translate(-142.715 -155.976)"/><path class="c" d="M233.979,161.814v12.373q0,4.9-4.677,4.9a4.777,4.777,0,0,1-2.736-.7,4.932,4.932,0,0,1-1.646-1.952l-.046-.113c0-.061.046-.114.136-.159l.182-.091a.341.341,0,0,1,.137-.045c.045,0,.091.038.136.113a4.531,4.531,0,0,0,1.453,1.748,4.078,4.078,0,0,0,2.361.613q4.064,0,4.063-4.291v-1.566a17.689,17.689,0,0,1-1.964.636,9.545,9.545,0,0,1-2.281.227,4.312,4.312,0,0,1-3.269-1.124,4.519,4.519,0,0,1-1.067-3.235v-7.333a.141.141,0,0,1,.159-.159h.3a.141.141,0,0,1,.159.159v7.31a3.981,3.981,0,0,0,.92,2.849,3.769,3.769,0,0,0,2.849.965,9.465,9.465,0,0,0,2.3-.25,12.851,12.851,0,0,0,1.9-.636V161.814c0-.106.061-.159.182-.159h.273C233.919,161.655,233.979,161.708,233.979,161.814Z" transform="translate(-154.102 -156.456)"/></g><g transform="translate(102.99 4.569)"><circle class="c" cx="2.197" cy="2.197" r="2.197"/><circle class="c" cx="2.197" cy="2.197" r="2.197" transform="translate(10.302)"/><circle class="c" cx="2.197" cy="2.197" r="2.197" transform="translate(20.539)"/><circle class="c" cx="2.197" cy="2.197" r="2.197" transform="translate(20.539 10.561)"/><circle class="c" cx="2.197" cy="2.197" r="2.197" transform="translate(20.539 20.371)"/><circle class="c" cx="2.197" cy="2.197" r="2.197" transform="translate(10.3 20.371)"/><circle class="c" cx="2.197" cy="2.197" r="2.197" transform="translate(10.3 10.096)"/><circle class="b" cx="2.197" cy="2.197" r="2.197" transform="translate(0.021 10.096)"/><g transform="translate(1.86 2.011)"><path class="c" d="M191.718,9.964V16.5a.359.359,0,0,0,.717,0V9.964a.359.359,0,0,0-.717,0Z" transform="translate(-191.718 -9.618)"/></g><g transform="translate(12.119 12.107)"><path class="c" d="M217.476,35.312v6.532a.359.359,0,0,0,.717,0V35.312a.359.359,0,0,0-.717,0Z" transform="translate(-217.476 -34.966)"/></g><g transform="translate(22.378 5.77)"><path class="c" d="M243.234,19.4v6.532a.359.359,0,0,0,.717,0V19.4a.359.359,0,0,0-.717,0Z" transform="translate(-243.234 -19.056)"/></g><g transform="translate(15.741 2.17)"><path class="c" d="M226.917,10.733h6.532a.359.359,0,0,0,0-.717h-6.532a.359.359,0,0,0,0,.717Z" transform="translate(-226.571 -10.016)"/></g><g transform="translate(12.248 22.209)"><path class="c" d="M218.148,61.047h6.532a.359.359,0,0,0,0-.717h-6.532a.359.359,0,0,0,0,.717Z" transform="translate(-217.801 -60.33)"/></g></g></g></g></svg>